<svg xmlns="http://www.w3.org/2000/svg" viewBox="0 0 750 400"><g id="freepik--background-complete--inject-14"><rect x="330.84" y="397.54" width="80.44" height="7" style="fill:#e0e0e0"></rect><path d="M350.3,372.37v-7.43a.89.89,0,0,1,.89-.89h.33a.89.89,0,0,1,.89.89v.35h5.51v1.88h-5.44v5.2Z" style="fill:#e0e0e0"></path><rect x="344.09" y="373.87" width="14.59" height="23.59" rx="2.29" style="fill:#ebebeb"></rect><path d="M349,370.87h5.07a1.05,1.05,0,0,1,1.05,1.05v1.94a0,0,0,0,1,0,0H348a0,0,0,0,1,0,0v-1.94A1.05,1.05,0,0,1,349,370.87Z" style="fill:#ebebeb"></path><rect x="352.36" y="377.54" width="6.32" height="15.61" style="fill:#fafafa"></rect><path d="M355.15,373.79a29.55,29.55,0,0,1-7.36,0,29.56,29.56,0,0,1,7.36,0Z" style="fill:#e0e0e0"></path><path d="M345,389.39a103,103,0,0,1,0-13.76,103,103,0,0,1,0,13.76Z" style="fill:#fafafa"></path><path d="M370.31,372.37v-7.43a.89.89,0,0,1,.89-.89h.33a.89.89,0,0,1,.89.89v.35h5.51v1.88h-5.44v5.2Z" style="fill:#e0e0e0"></path><rect x="364.1" y="373.87" width="14.59" height="23.59" rx="2.29" style="fill:#ebebeb"></rect><path d="M369,370.87h5.07a1.05,1.05,0,0,1,1.05,1.05v1.94a0,0,0,0,1,0,0H368a0,0,0,0,1,0,0v-1.94A1.05,1.05,0,0,1,369,370.87Z" style="fill:#ebebeb"></path><rect x="372.38" y="377.54" width="6.32" height="15.61" style="fill:#fafafa"></rect><path d="M375.16,373.79a29.56,29.56,0,0,1-7.36,0,29.55,29.55,0,0,1,7.36,0Z" style="fill:#e0e0e0"></path><path d="M365,389.39a103,103,0,0,1,0-13.76,103,103,0,0,1,0,13.76Z" style="fill:#fafafa"></path><path d="M390.21,372.37v-7.43a.89.89,0,0,1,.89-.89h.33a.89.89,0,0,1,.89.89v.35h5.51v1.88h-5.44v5.2Z" style="fill:#e0e0e0"></path><rect x="384.01" y="373.87" width="14.59" height="23.59" rx="2.29" style="fill:#ebebeb"></rect><path d="M388.93,370.87H394a1.05,1.05,0,0,1,1.05,1.05v1.94a0,0,0,0,1,0,0h-7.18a0,0,0,0,1,0,0v-1.94A1.05,1.05,0,0,1,388.93,370.87Z" style="fill:#ebebeb"></path><rect x="392.28" y="377.54" width="6.32" height="15.61" style="fill:#fafafa"></rect><path d="M395.06,373.79a29.56,29.56,0,0,1-7.36,0,29.55,29.55,0,0,1,7.36,0Z" style="fill:#e0e0e0"></path><path d="M384.9,389.39a103,103,0,0,1,0-13.76,103,103,0,0,1,0,13.76Z" style="fill:#fafafa"></path><rect x="44.55" y="281.58" width="662.88" height="13.58" style="fill:#ebebeb"></rect><rect x="329.95" y="335.9" width="80.73" height="7" style="fill:#ebebeb"></rect><rect x="340.64" y="322.55" width="17.69" height="13.35" style="fill:#ebebeb"></rect><path d="M358.11,327.46a72.94,72.94,0,0,1-8.64.26,72.94,72.94,0,0,1-8.64-.26,70.46,70.46,0,0,1,8.64-.26A70.46,70.46,0,0,1,358.11,327.46Z" style="fill:#e0e0e0"></path><rect x="346.68" y="329.8" width="11.43" height="3.44" style="fill:#fff"></rect><path d="M358.14,333.27H346.66v-3.49h11.48Z" style="fill:#fafafa"></path><rect x="361.66" y="322.55" width="17.69" height="13.35" style="fill:#ebebeb"></rect><path d="M379.14,327.46a73,73,0,0,1-8.65.26,72.94,72.94,0,0,1-8.64-.26,70.46,70.46,0,0,1,8.64-.26A70.57,70.57,0,0,1,379.14,327.46Z" style="fill:#e0e0e0"></path><rect x="367.71" y="329.8" width="11.43" height="3.44" style="fill:#fff"></rect><path d="M367.73,333.22h11.38v-3.39H367.73Z" style="fill:#fafafa"></path><rect x="383.61" y="322.55" width="17.69" height="13.35" style="fill:#ebebeb"></rect><path d="M401.09,327.46a72.94,72.94,0,0,1-8.64.26,73,73,0,0,1-8.65-.26,70.57,70.57,0,0,1,8.65-.26A70.46,70.46,0,0,1,401.09,327.46Z" style="fill:#e0e0e0"></path><rect x="389.66" y="329.8" width="11.43" height="3.44" style="fill:#fff"></rect><path d="M401.12,333.27H389.63v-3.49h11.49Z" style="fill:#fafafa"></path><rect x="328.36" y="288.93" width="8.55" height="183.91" style="fill:#ebebeb"></rect><rect x="403.3" y="288.93" width="8.55" height="183.91" style="fill:#ebebeb"></rect><rect x="322.13" y="248.23" width="86.46" height="7.53" style="fill:#e0e0e0"></rect><path d="M343.05,221.17v-8a1,1,0,0,1,.95-1h.36a.94.94,0,0,1,.95,1v.37h5.93v2h-5.85v5.59Z" style="fill:#e0e0e0"></path><rect x="336.38" y="222.78" width="15.69" height="25.36" rx="2.29" style="fill:#ebebeb"></rect><path d="M341.6,219.56h5.61a1.05,1.05,0,0,1,1.05,1.05v2.16a0,0,0,0,1,0,0h-7.72a0,0,0,0,1,0,0v-2.16A1.05,1.05,0,0,1,341.6,219.56Z" style="fill:#ebebeb"></path><rect x="345.27" y="226.73" width="6.8" height="16.78" style="fill:#fafafa"></rect><path d="M348.26,222.69a31.41,31.41,0,0,1-7.91,0,32.71,32.71,0,0,1,7.91,0Z" style="fill:#e0e0e0"></path><path d="M337.34,239.46a57.67,57.67,0,0,1-.24-7.39,57.67,57.67,0,0,1,.24-7.39,54.47,54.47,0,0,1,.25,7.39A54.47,54.47,0,0,1,337.34,239.46Z" style="fill:#fafafa"></path><path d="M364.56,221.17v-8a1,1,0,0,1,.95-1h.36a1,1,0,0,1,.95,1v.37h5.93v2H366.9v5.59Z" style="fill:#e0e0e0"></path><rect x="357.89" y="222.78" width="15.69" height="25.36" rx="2.29" style="fill:#ebebeb"></rect><path d="M363.1,219.56h5.61a1.05,1.05,0,0,1,1.05,1.05v2.16a0,0,0,0,1,0,0H362a0,0,0,0,1,0,0v-2.16A1.05,1.05,0,0,1,363.1,219.56Z" style="fill:#ebebeb"></path><rect x="366.78" y="226.73" width="6.8" height="16.78" style="fill:#fafafa"></rect><path d="M369.77,222.69a31.41,31.41,0,0,1-7.91,0,32.71,32.71,0,0,1,7.91,0Z" style="fill:#e0e0e0"></path><path d="M358.85,239.46a54.47,54.47,0,0,1-.25-7.39,54.47,54.47,0,0,1,.25-7.39,54.47,54.47,0,0,1,.25,7.39A54.47,54.47,0,0,1,358.85,239.46Z" style="fill:#fafafa"></path><path d="M386,221.17v-8a1,1,0,0,1,.95-1h.36a.94.94,0,0,1,.95,1v.37h5.93v2h-5.85v5.59Z" style="fill:#e0e0e0"></path><rect x="379.28" y="222.78" width="15.69" height="25.36" rx="2.29" style="fill:#ebebeb"></rect><path d="M384.5,219.56h5.61a1.05,1.05,0,0,1,1.05,1.05v2.16a0,0,0,0,1,0,0h-7.72a0,0,0,0,1,0,0v-2.16A1.05,1.05,0,0,1,384.5,219.56Z" style="fill:#ebebeb"></path><rect x="388.17" y="226.73" width="6.8" height="16.78" style="fill:#fafafa"></rect><path d="M391.16,222.69a31.41,31.41,0,0,1-7.91,0,32.71,32.71,0,0,1,7.91,0Z" style="fill:#e0e0e0"></path><path d="M380.24,239.46a57.67,57.67,0,0,1-.24-7.39,57.67,57.67,0,0,1,.24-7.39,54.47,54.47,0,0,1,.25,7.39A54.47,54.47,0,0,1,380.24,239.46Z" style="fill:#fafafa"></path><rect x="330.84" y="398.05" width="80.44" height="7" style="fill:#ebebeb"></rect><rect x="318.41" y="175.45" width="86.78" height="7.53" style="fill:#e0e0e0"></rect><rect x="329.9" y="161.1" width="19.01" height="14.35" style="fill:#ebebeb"></rect><path d="M348.68,166.38a78.49,78.49,0,0,1-9.29.28,78.49,78.49,0,0,1-9.29-.28,76,76,0,0,1,9.29-.28A76,76,0,0,1,348.68,166.38Z" style="fill:#e0e0e0"></path><rect x="336.4" y="168.89" width="12.29" height="3.7" style="fill:#fff"></rect><path d="M348.71,172.62H336.37v-3.75h12.34Z" style="fill:#fafafa"></path><rect x="352.5" y="161.1" width="19.01" height="14.35" style="fill:#ebebeb"></rect><path d="M371.28,166.38a78.49,78.49,0,0,1-9.29.28,78.49,78.49,0,0,1-9.29-.28,76,76,0,0,1,9.29-.28A76,76,0,0,1,371.28,166.38Z" style="fill:#e0e0e0"></path><rect x="359" y="168.89" width="12.29" height="3.7" style="fill:#fff"></rect><path d="M359,172.57h12.24v-3.65H359Z" style="fill:#fafafa"></path><rect x="376.09" y="161.1" width="19.01" height="14.35" style="fill:#ebebeb"></rect><path d="M394.88,166.38a78.49,78.49,0,0,1-9.29.28,78.49,78.49,0,0,1-9.29-.28,76,76,0,0,1,9.29-.28A76,76,0,0,1,394.88,166.38Z" style="fill:#e0e0e0"></path><rect x="382.59" y="168.89" width="12.29" height="3.7" style="fill:#fff"></rect><path d="M394.91,172.62H382.57v-3.75h12.34Z" style="fill:#fafafa"></path><polygon points="326.42 31.3 410.54 31.3 410.54 140.79 326.99 140.36 326.42 31.3" style="fill:#e0e0e0"></polygon><rect x="321.58" y="31.3" width="83.63" height="108.64" transform="translate(726.79 171.25) rotate(180)" style="fill:#ebebeb"></rect><path d="M405.62,30.89V140.36H321.16V30.89Zm-.83,108.64V31.72H322V139.53Z" style="fill:#e0e0e0"></path><rect x="330.17" y="43.07" width="64.02" height="85.11" style="fill:#fff"></rect><path d="M330.17,43.07s0,.14,0,.41,0,.68,0,1.2c0,1.06,0,2.62,0,4.64,0,4,0,10,0,17.45,0,15,.06,36.22.1,61.41l-.2-.2,64,0h0l-.22.22c0-31.69,0-61.07,0-85.11l.18.18-46.49-.1-12.95,0-3.41,0-1.18,0,1.15,0,3.37,0L347.6,43l46.6-.09h.18v.18c0,24,0,53.42,0,85.11v.22h-.22l-64,0H330v-.19c0-25.24.07-46.54.1-61.54,0-7.46,0-13.36.05-17.41,0-2,0-3.54,0-4.59,0-.52,0-.91,0-1.18S330.17,43.07,330.17,43.07Z" style="fill:#e0e0e0"></path><path d="M321.39,140a9.92,9.92,0,0,1,1.12-1.84c.75-1.1,1.8-2.61,3-4.24s2.35-3.08,3.2-4.1a10.82,10.82,0,0,1,1.46-1.59A11.1,11.1,0,0,1,329,130l-3.09,4.16-3.1,4.17A12.07,12.07,0,0,1,321.39,140Z" style="fill:#e0e0e0"></path><path d="M321.58,31.3a60.77,60.77,0,0,1,4.47,5.76,61.38,61.38,0,0,1,4.12,6,64.92,64.92,0,0,1-4.47-5.76A61.38,61.38,0,0,1,321.58,31.3Z" style="fill:#e0e0e0"></path><line x1="405.21" y1="31.3" x2="394.2" y2="43.5" style="fill:#fff"></line><path d="M394.2,43.5a78,78,0,0,1,5.34-6.24,77.79,77.79,0,0,1,5.67-6,81.17,81.17,0,0,1-5.35,6.25A77.53,77.53,0,0,1,394.2,43.5Z" style="fill:#e0e0e0"></path><path d="M405.21,140a71.59,71.59,0,0,1-5.42-5.68,75.4,75.4,0,0,1-5.1-6,69.53,69.53,0,0,1,5.42,5.68A73.35,73.35,0,0,1,405.21,140Z" style="fill:#e0e0e0"></path><path d="M344.66,103.69c.57-.77,1.09-1.47,1.59-2.16,1.23-1.68,2.55-3.3,3.66-5a8.46,8.46,0,0,0,.18-9c-.94-1.82-2-3.6-2.92-5.42a15.44,15.44,0,0,1-1.25-11.92,16.13,16.13,0,0,1,.62-1.51l-.54,0c.31-.56.58-1.07.85-1.57l-.13-.11-1.1,1.09-.07-.05,2.54-3.42.11.06-.7,1.22a18.18,18.18,0,0,1,5.58-4.12,8.7,8.7,0,0,0,1.68-1.58c.12.87.46.84,1,.57a14.54,14.54,0,0,1,6.75-1,46.85,46.85,0,0,1,9.57,1.41,3.26,3.26,0,0,0,3.59-.84,5.55,5.55,0,0,1,.75,3.19c.22-.51.43-1,.72-1.71l1.26,2.54.95-.69a5.43,5.43,0,0,1-2.3,5.16.77.77,0,0,0-.45,1c.48,2,.88,4,1.31,6a2.88,2.88,0,0,1-.41,2.35,1.75,1.75,0,0,0,0,2.19c1,1.44,1.94,2.92,2.9,4.38.84,1.26.7,1.75-.7,2.37-.44.19-1.12.26-1.27.58s.22.89.36,1.36c.19.64.08.89-.73,1.63a3.59,3.59,0,0,1,.31.62c.14.48.22,1-.32,1.3a1.05,1.05,0,0,0-.42,1.36c.11.34.22.68.3,1a2.7,2.7,0,0,1-3,3.52c-1.45-.07-2.89-.29-4.33-.43-2-.21-1.45-.38-2.16,1.24a20.71,20.71,0,0,1-1.42,3.55,3.07,3.07,0,0,0,0,2.14c.65,2.46,1.43,4.88,2.12,7.32a45.8,45.8,0,0,1,1,4.69C363.65,109,354.7,105.5,344.66,103.69Z" style="fill:#ebebeb"></path><rect x="60.76" y="62.54" width="48.65" height="12.87" style="fill:#f5f5f5"></rect><path d="M88.84,89s0-.08,0-.23l0-.66c0-.61,0-1.45,0-2.54,0-2.22,0-5.41-.08-9.44l.15.15-48.65.1.25-.25h0v6.52q0,3.23,0,6.33l-.24-.24,34.67.11,10.23.07,2.77,0h.73a1.27,1.27,0,0,1,.25,0s-.07,0-.22,0h-.7l-2.71,0L75,89.1l-34.84.11H40V89c0-2.07,0-4.18,0-6.33V76.12h0l.25-.25,48.65.1H89v.15c0,4.06-.06,7.29-.08,9.53,0,1.07,0,1.9,0,2.5,0,.26,0,.47,0,.64S88.85,89,88.84,89Z" style="fill:#e0e0e0"></path><rect x="682.17" y="147.01" width="48.65" height="12.87" style="fill:#f5f5f5"></rect><path d="M710.25,173.44s0-.09,0-.24,0-.39,0-.66c0-.6,0-1.45,0-2.53,0-2.22,0-5.42-.08-9.45l.15.16-48.65.09.25-.25h0v6.53c0,2.15,0,4.27,0,6.34l-.24-.25,34.67.11,10.23.07,2.77,0,.72,0a.76.76,0,0,1,.26,0H710l-.7,0-2.71,0-10.18.07-34.84.11h-.24v-.24c0-2.07,0-4.19,0-6.34v-6.53h0l.25-.24,48.65.09h.15v.15c0,4.07-.06,7.29-.08,9.54,0,1.07,0,1.9,0,2.5,0,.26,0,.47,0,.63A.85.85,0,0,1,710.25,173.44Z" style="fill:#e0e0e0"></path><path d="M263,41.83a1,1,0,0,1,0-.23v-.66c0-.61,0-1.45,0-2.54,0-2.22-.05-5.41-.08-9.44l.15.15-48.65.1.25-.25h0V41.83l-.24-.24L249,41.7l10.23.07,2.77,0,.72,0H263s-.07,0-.23,0h-.69l-2.71,0L249.17,42l-34.84.11h-.25V29h0l.25-.25,48.65.1h.15V29c0,4.07-.06,7.29-.08,9.53,0,1.07,0,1.91,0,2.5l0,.64A1.23,1.23,0,0,1,263,41.83Z" style="fill:#e0e0e0"></path><path d="M269.58,29a.73.73,0,0,1,0-.24c0-.19,0-.41,0-.69,0-.63,0-1.49-.05-2.58,0-2.25-.05-5.44-.09-9.36l.18.18-29.23.07c-.23.22.3-.3.24-.25h0v6.61c0,2.15,0,4.24,0,6.24l-.24-.23,20.92.11,6.09.06,1.64,0,.59,0a3.43,3.43,0,0,1-.53,0l-1.6,0-6,.06-21.07.12h-.23V29c0-2,0-4.09,0-6.24V16.11h0c-.06.05.47-.47.25-.25l29.23.07h.18v.18c0,4-.07,7.19-.09,9.47,0,1.07,0,1.92-.05,2.54S269.59,29,269.58,29Z" style="fill:#e0e0e0"></path><path d="M69.94,239.76a1,1,0,0,1,0-.23c0-.17,0-.39,0-.66,0-.6,0-1.45,0-2.53,0-2.22-.05-5.42-.08-9.45l.15.15-48.65.1c.11-.11-.25.25.24-.25h0v12.86l-.24-.24,34.67.11,10.23.07,2.77,0,.72,0h.26s-.07,0-.23,0l-.69,0-2.72,0-10.17.07L21.29,240H21V226.9h0c.49-.49.14-.13.25-.24l48.65.09h.15v.15c0,4.07-.06,7.29-.08,9.54,0,1.07,0,1.9,0,2.5l0,.63A1.23,1.23,0,0,1,69.94,239.76Z" style="fill:#e0e0e0"></path><path d="M76.53,226.89s0-.09,0-.24,0-.41,0-.68c0-.64,0-1.5,0-2.58,0-2.26,0-5.45-.09-9.37l.17.18-29.23.07.25-.25h0v6.62q0,3.24,0,6.24l-.24-.23,20.91.11,6.1.07,1.64,0,.58,0a3.28,3.28,0,0,1-.53,0l-1.59,0-6,.07-21.07.11h-.23v-.24q0-3,0-6.24V214h0c0,.06.47-.47.25-.24l29.23.06h.18V214c0,4-.07,7.19-.09,9.47,0,1.07,0,1.92-.05,2.55A4.69,4.69,0,0,1,76.53,226.89Z" style="fill:#e0e0e0"></path><path d="M672.05,63s0-.09,0-.24,0-.39,0-.66c0-.6,0-1.45,0-2.53,0-2.22,0-5.42-.08-9.45l.15.15-48.65.1.25-.25h0v3.29c0,1.09,0,2.17,0,3.24V63l-.24-.25,34.67.11,10.23.07,2.77,0,.72,0a.76.76,0,0,1,.26,0h-.22l-.7,0-2.71,0-10.18.07-34.84.11h-.24V63c0-2.07,0-4.19,0-6.34V50.14h0l.25-.24,48.65.09h.15v.15c0,4.07-.06,7.29-.08,9.54,0,1.07,0,1.9,0,2.5v.63A.85.85,0,0,1,672.05,63Z" style="fill:#e0e0e0"></path><path d="M678.65,50.13a1.1,1.1,0,0,1,0-.24c0-.19,0-.41,0-.68,0-.64,0-1.5,0-2.58,0-2.26-.06-5.45-.1-9.37l.18.18-29.23.07c-.23.22.3-.3.24-.25h0v6.62c0,2.16,0,4.24,0,6.24l-.23-.23,20.91.11,6.09.07,1.64,0a4,4,0,0,1,.59,0,3.28,3.28,0,0,1-.53,0l-1.6,0-6,.07-21.07.11h-.24v-.24c0-2,0-4.08,0-6.24V37.27h0c-.06.06.47-.47.25-.24l29.23.07h.18v.17c0,4-.08,7.19-.1,9.47,0,1.07,0,1.92,0,2.55S678.66,50.15,678.65,50.13Z" style="fill:#e0e0e0"></path><path d="M683.38,386.49s0-.08,0-.23l0-.67c0-.6,0-1.45,0-2.53,0-2.22,0-5.41-.08-9.44l.15.15-48.65.1.25-.25h0v6.52q0,3.22,0,6.33l-.24-.24,34.67.11,10.23.07,2.77,0h.73l.25,0h-.22l-.7,0-2.71,0-10.18.07-34.84.11h-.24v-.24c0-2.07,0-4.18,0-6.33v-6.52h0l.25-.25,48.65.1h.15v.15c0,4.06-.06,7.29-.08,9.53,0,1.07,0,1.9,0,2.5v.63C683.39,386.43,683.39,386.49,683.38,386.49Z" style="fill:#e0e0e0"></path><path d="M690,373.62a1.41,1.41,0,0,1,0-.25c0-.18,0-.41,0-.68,0-.63,0-1.49,0-2.58,0-2.26-.06-5.44-.1-9.36l.18.18-29.23.06.24-.24h0v6.61c0,2.15,0,4.24,0,6.24l-.23-.24,20.91.11,6.09.07,1.64,0,.59,0a3.28,3.28,0,0,1-.53,0l-1.6,0-6,.06-21.07.11h-.24v-.24c0-2,0-4.09,0-6.24v-6.61h0l.25-.25,29.23.07h.18v.18c0,4-.08,7.19-.1,9.47,0,1.07,0,1.92,0,2.54S690,373.63,690,373.62Z" style="fill:#e0e0e0"></path><path d="M95.86,400.49a1.35,1.35,0,0,1,0-.24v-.66c0-.6,0-1.45,0-2.53,0-2.22-.05-5.42-.08-9.44l.15.15-48.65.09.24-.24h0v12.85l-.24-.24,34.67.11,10.23.06,2.77,0h.72l.26,0h-.23l-.69,0-2.71,0-10.18.07-34.84.11H47V387.64h0l.25-.25,48.65.1H96v.15c0,4.06-.06,7.29-.08,9.53,0,1.07,0,1.9,0,2.5l0,.63A1.66,1.66,0,0,1,95.86,400.49Z" style="fill:#e0e0e0"></path><path d="M102.46,387.62a.77.77,0,0,1,0-.25c0-.18,0-.41,0-.68,0-.63,0-1.49,0-2.58,0-2.26-.05-5.44-.09-9.36l.18.17L73.23,375l.24-.24h0v6.61c0,2.15,0,4.24,0,6.24l-.24-.24,20.92.11,6.09.07,1.64,0,.59,0a3.43,3.43,0,0,1-.53,0l-1.6,0-6,.06-21.07.11H73v-.23c0-2,0-4.09,0-6.24v-6.61h0l.25-.25,29.23.07h.18v.18c0,4-.07,7.18-.09,9.47,0,1.07,0,1.91-.05,2.54S102.47,387.63,102.46,387.62Z" style="fill:#e0e0e0"></path></g><g id="freepik--Floor--inject-14"><path d="M705.83,470.42c0,.15-148.13.26-330.81.26s-330.85-.11-330.85-.26,148.1-.26,330.85-.26S705.83,470.28,705.83,470.42Z" style="fill:#263238"></path></g><g id="freepik--Plant--inject-14"><path d="M319.87,438.37s-4.61-31.69-4.22-50.12,0-39.19,0-39.19h2.12s-1.44,36.6.13,58.67,5.68,30.64,5.68,30.64h-3.69" style="fill:#263238"></path><path d="M333.6,313.41a5.62,5.62,0,0,0-1.93-2.84c-1.35-.85-3.12-.49-4.62,0-6.42,2.27-12.11,14.23-14.7,20.53l8.52,28.71C336.25,345.58,338.91,326.86,333.6,313.41Z" style="fill:#455a64"></path><path d="M331.17,311.74a1.8,1.8,0,0,1-.12.37l-.42,1.05c-.37.9-.9,2.21-1.52,3.84-1.26,3.26-2.86,7.82-4.29,13s-2.4,9.87-3,13.31c-.31,1.72-.54,3.11-.68,4.08q-.11.67-.18,1.11a1.81,1.81,0,0,1-.09.38,1.43,1.43,0,0,1,0-.39c0-.29.07-.66.11-1.12.11-1,.3-2.38.57-4.11a122.53,122.53,0,0,1,7.31-26.31c.65-1.62,1.21-2.92,1.63-3.81l.47-1A1.79,1.79,0,0,1,331.17,311.74Z" style="fill:#263238"></path><path d="M317.08,366.73A26,26,0,0,1,304,344.9c-.31-6.37,1.65-12.62,3.87-18.6a2.38,2.38,0,0,1,.9-1.35,2.3,2.3,0,0,1,2.18.34c5.8,3.3,9.32,9.6,11.19,16a32.35,32.35,0,0,1,1.31,13.17,21.82,21.82,0,0,1-6.32,12.26" style="fill:#455a64"></path><path d="M317.08,366.73a1.93,1.93,0,0,1,0-.39l0-1.1c0-.95,0-2.34-.12-4a110.09,110.09,0,0,0-1.48-13.27c-.89-5.14-2-9.74-2.75-13.07-.39-1.63-.71-3-.95-3.94-.1-.44-.18-.79-.25-1.08a1.74,1.74,0,0,1-.06-.38,1.5,1.5,0,0,1,.13.36c.08.28.19.63.31,1.06.27.92.63,2.26,1.06,3.92.85,3.31,2,7.92,2.86,13.07a97.51,97.51,0,0,1,1.38,13.32c0,1.71,0,3.1,0,4.05,0,.45,0,.82-.05,1.11S317.1,366.73,317.08,366.73Z" style="fill:#263238"></path><g style="opacity:0.30000000000000004"><path d="M317.08,366.73A26,26,0,0,1,304,344.9c-.31-6.37,1.65-12.62,3.87-18.6a2.38,2.38,0,0,1,.9-1.35,2.3,2.3,0,0,1,2.18.34c5.8,3.3,9.32,9.6,11.19,16a32.35,32.35,0,0,1,1.31,13.17,21.82,21.82,0,0,1-6.32,12.26"></path></g><path d="M326.09,415.22c7.86,1.72,14.34,7.27,21.92,10,5,1.79,10.69,2.42,14.7,5.93-1-2.43-3.24-4.05-5.46-5.43a97.86,97.86,0,0,0-19.86-9.48c-3.57-1.23-7.44-2.26-11.08-1.25" style="fill:#455a64"></path><path d="M314.73,422.22c-9.84-.16-20.21-8.54-30-9,10.26-3.31,24.94-.61,30,9" style="fill:#455a64"></path><path d="M318.58,398.61a31.86,31.86,0,0,1,15.73-1.07,94.94,94.94,0,0,1,15.37,4.17c-.51-3.41-3.28-6-5.87-8.26a41.46,41.46,0,0,0-6.17-4.74,13.77,13.77,0,0,0-7.4-2.08,11.7,11.7,0,0,0-8.17,4.11,13.58,13.58,0,0,0-3.49,7.87" style="fill:#455a64"></path><path d="M298.37,387.74c-6.19-5.29-15.58-4.77-23.72-4.59a193.11,193.11,0,0,1,36.79,22.93C311.77,400.32,306.2,394.42,298.37,387.74Z" style="fill:#455a64"></path><g style="opacity:0.30000000000000004"><path d="M298.37,387.74c-6.19-5.29-15.58-4.77-23.72-4.59a193.11,193.11,0,0,1,36.79,22.93C311.77,400.32,306.2,394.42,298.37,387.74Z"></path></g><path d="M321.36,380.44a68.86,68.86,0,0,1,9.53-5.54c3.26-1.49,6.31-3.85,9.46-5.55,4.08-2.21,7.62-5.29,11.37-8s7.87-5.22,12.45-5.94a24.58,24.58,0,0,0-11.33.65,73.17,73.17,0,0,0-10.67,4.15c-4.83,2.18-9.75,4.41-13.7,7.95s-7.53,7-7.11,12.31" style="fill:#455a64"></path><path d="M347.83,422.22a1.56,1.56,0,0,1-.31-.13l-.86-.45c-.74-.39-1.81-1-3.15-1.65-.66-.35-1.4-.72-2.19-1.09s-1.65-.78-2.56-1.17a37.69,37.69,0,0,0-6.06-2.12,13.08,13.08,0,0,0-6.32-.16,20,20,0,0,0-2.67.8,13.61,13.61,0,0,0-2.16,1.11,14.21,14.21,0,0,0-2.71,2.24c-.57.61-.85,1-.88,1a1,1,0,0,1,.18-.29c.12-.18.32-.44.59-.77a13.12,13.12,0,0,1,2.68-2.36A14.92,14.92,0,0,1,323.6,416a18.33,18.33,0,0,1,2.71-.84,13.18,13.18,0,0,1,6.47.13,36.06,36.06,0,0,1,6.11,2.16c.91.4,1.77.8,2.55,1.21s1.53.76,2.19,1.13c1.33.7,2.37,1.32,3.1,1.75l.82.5A1.46,1.46,0,0,1,347.83,422.22Z" style="fill:#263238"></path><path d="M307.39,417.34a2.26,2.26,0,0,1,.61.18,13.31,13.31,0,0,1,1.61.7,19.74,19.74,0,0,1,4.7,3.33,19.5,19.5,0,0,1,3.52,4.57,13.14,13.14,0,0,1,.76,1.58,2.18,2.18,0,0,1,.21.6c-.06,0-.43-.8-1.18-2.05a22.55,22.55,0,0,0-3.55-4.44,22.27,22.27,0,0,0-4.58-3.37C308.21,417.73,307.36,417.4,307.39,417.34Z" style="fill:#263238"></path><path d="M285.61,387.24l.42.13,1.18.42,1.86.69c.73.27,1.52.66,2.41,1.06a56.77,56.77,0,0,1,12.81,8.16,62,62,0,0,1,6,5.89,65.68,65.68,0,0,1,4.24,5.37c1.12,1.59,2,2.92,2.56,3.84l.67,1.05a1.55,1.55,0,0,1,.22.38,2,2,0,0,1-.27-.34c-.18-.23-.43-.57-.73-1-.62-.89-1.5-2.2-2.65-3.77s-2.59-3.37-4.28-5.3a66.31,66.31,0,0,0-6-5.83,59.72,59.72,0,0,0-12.7-8.21c-.88-.4-1.66-.82-2.37-1.1l-1.84-.74-1.16-.49C285.74,387.32,285.6,387.26,285.61,387.24Z" style="fill:#263238"></path><path d="M333.35,393.07a2.87,2.87,0,0,1-.79-.1l-.9-.16c-.36-.07-.77-.07-1.21-.12a12.45,12.45,0,0,0-6.77,1.33,12.24,12.24,0,0,0-3.08,2.29,14,14,0,0,0-2,2.45,21.11,21.11,0,0,0-1.35,2.58,3,3,0,0,1,.2-.77,11,11,0,0,1,.94-1.95,13.6,13.6,0,0,1,2-2.54,12,12,0,0,1,10.1-3.64,11.59,11.59,0,0,1,1.22.17l.9.23A4.46,4.46,0,0,1,333.35,393.07Z" style="fill:#263238"></path><path d="M343.24,362.38a2.25,2.25,0,0,1-.37.23l-1.1.6c-1,.51-2.33,1.27-4,2.26s-3.62,2.22-5.7,3.71a47.12,47.12,0,0,0-6.37,5.33,16,16,0,0,0-2.6,3.37c-.65,1.24-1.27,2.44-1.83,3.59a64.81,64.81,0,0,0-2.74,6.22,40,40,0,0,0-1.33,4.39c-.25,1.05-.34,1.64-.37,1.64a1.63,1.63,0,0,1,0-.44c0-.28.1-.7.21-1.23a33.26,33.26,0,0,1,1.23-4.44,58.23,58.23,0,0,1,2.68-6.29c.56-1.15,1.17-2.36,1.81-3.6a16.16,16.16,0,0,1,2.66-3.45,45.65,45.65,0,0,1,6.43-5.36c2.1-1.48,4.08-2.69,5.76-3.66s3.09-1.69,4.07-2.16l1.12-.54A2.1,2.1,0,0,1,343.24,362.38Z" style="fill:#263238"></path><path d="M315.64,392.19a3.4,3.4,0,0,1-.2-.83c-.11-.61-.26-1.37-.43-2.28a64,64,0,0,0-1.86-7.38,66.62,66.62,0,0,0-2.81-7.09c-.38-.83-.71-1.54-1-2.1a3.91,3.91,0,0,1-.32-.79,3.54,3.54,0,0,1,.44.73c.26.48.63,1.18,1.06,2.06a50.17,50.17,0,0,1,2.92,7.08,52.42,52.42,0,0,1,1.78,7.45c.15,1,.26,1.75.32,2.3A4.45,4.45,0,0,1,315.64,392.19Z" style="fill:#263238"></path><path d="M314.92,369.79a26.51,26.51,0,0,0-3.2-10.63A35.05,35.05,0,0,0,288,341.43q11,16.41,22,32.81l2.84,5.86A16.81,16.81,0,0,0,314.92,369.79Z" style="fill:#455a64"></path><rect x="295.31" y="434.45" width="51.19" height="9.07" style="fill:#FFC100"></rect><polygon points="299.14 441.73 303.5 469.88 337.48 469.88 342.68 441.73 299.14 441.73" style="fill:#FFC100"></polygon><path d="M346.47,443.54c0,.1-11.54.18-25.78.18s-25.79-.08-25.79-.18,11.54-.18,25.79-.18S346.47,443.44,346.47,443.54Z" style="fill:#263238"></path></g><g id="freepik--mirror-2--inject-14"><rect x="429.12" y="29.7" width="207.08" height="226.82" style="fill:#6f4439"></rect><rect x="433.33" y="32.9" width="198.66" height="220.41" style="fill:#fafafa"></rect><path d="M575.75,110.48c.1.1-21,21.34-47.07,47.43S481.35,205.08,481.25,205s21-21.33,47.07-47.44S575.65,110.38,575.75,110.48Z" style="fill:#263238"></path><path d="M579.05,86.69c.1.1-10,10.39-22.61,23s-22.88,22.72-23,22.62,10-10.39,22.62-23S579,86.59,579.05,86.69Z" style="fill:#263238"></path><path d="M522.78,78.75c.1.1-10,10.39-22.61,23s-22.89,22.72-23,22.62,10-10.39,22.62-23S522.68,78.65,522.78,78.75Z" style="fill:#263238"></path><path d="M533.45,173.92c.11.1-9.72,10.1-22,22.32s-22.22,22.06-22.32,22,9.72-10.1,21.95-22.32S533.35,173.82,533.45,173.92Z" style="fill:#263238"></path><path d="M604.58,210.72c-2.38-11.27-.72-23.06-2.72-34.39s-9.62-23.25-21.1-24.15-20.84,9.71-24,20.72-2.14,22.76-3.81,34.09a72.39,72.39,0,0,1-27.82,46.78L632,253.32C621.07,240.83,608,227,604.58,210.72Z" style="fill:#ebebeb"></path></g><g id="freepik--mirror-1--inject-14"><rect x="95.29" y="28.93" width="207.08" height="226.82" style="fill:#6f4439"></rect><rect x="99.5" y="32.14" width="198.66" height="220.41" style="fill:#fafafa"></rect><path d="M241.92,109.71c.1.1-21,21.34-47.07,47.44s-47.33,47.17-47.44,47.07,21-21.34,47.07-47.44S241.82,109.61,241.92,109.71Z" style="fill:#263238"></path><path d="M245.22,85.92c.1.1-10,10.39-22.61,23s-22.89,22.72-23,22.62,10-10.39,22.62-23S245.12,85.82,245.22,85.92Z" style="fill:#263238"></path><path d="M189,78c.1.11-10,10.4-22.61,23s-22.89,22.72-23,22.61,10-10.39,22.62-23S188.85,77.88,189,78Z" style="fill:#263238"></path><path d="M199.62,173.16c.1.1-9.73,10.09-22,22.32s-22.22,22.05-22.32,22,9.72-10.09,22-22.32S199.52,173.05,199.62,173.16Z" style="fill:#263238"></path><path d="M260.55,210c-2.38-11.27-.72-23-2.73-34.39s-9.61-23.25-21.09-24.14-20.84,9.71-24,20.71-2.14,22.76-3.81,34.09A72.41,72.41,0,0,1,181.08,253l105.14-1.08C275.3,239.44,264,226.18,260.55,210Z" style="fill:#ebebeb"></path></g><g id="freepik--characters-2--inject-14"><path d="M668.09,70.33a6.55,6.55,0,0,0-8-1.94,7.8,7.8,0,0,0-3.38,4.18,22.56,22.56,0,0,0-1.13,5.35L654,82.21a9.09,9.09,0,0,0,7.4,1.56,10.35,10.35,0,0,0,7.11-5A8,8,0,0,0,668.09,70.33Z" style="fill:#263238"></path><path d="M608.51,122.07c-.47-6.19,2.54-12,5.29-17.52a44,44,0,0,0,3.54-11.75c-1.09-8.86,3.19-14.18,6.87-17s7.71-2,8.3,2.59l4.72,9.79q3.42,21.19,6.83,42.4c1.39,8.57-4.68,11.66-10.35,18.23h0c-3.6.72-.16,4.07-2,7.25s-5.18,6.83-5.28,7.72c-5.44-.41-20.53-4.43-20.84-9.88-.67-11.47,7.37-17.1,7.51-19.68C613.34,129.91,608.85,126.42,608.51,122.07Z" style="fill:#263238"></path><path d="M623.27,96.12a22.09,22.09,0,0,1,22-20.35h1.14c12.33.7,18.63,11.56,17.6,23.87l-3.26,47.44h0l-24,15.86-6.31-10,3.3-5,0-10s-11.86-1.82-12-13.67C621.64,118.6,622.43,106.79,623.27,96.12Z" style="fill:#ffbf9d"></path><path d="M633.66,138a28.73,28.73,0,0,0,15.52-4.58s-3.64,8.54-15.47,7.49Z" style="fill:#ff9a6c"></path><path d="M626.33,108.1a1.69,1.69,0,0,0,1.64,1.71,1.63,1.63,0,0,0,1.74-1.53,1.69,1.69,0,0,0-1.64-1.71A1.62,1.62,0,0,0,626.33,108.1Z" style="fill:#263238"></path><path d="M625.83,101.92c.21.22,1.49-.74,3.31-.73s3.16.91,3.36.68-.12-.5-.7-.92a4.64,4.64,0,0,0-2.69-.82,4.43,4.43,0,0,0-2.63.86C625.92,101.42,625.73,101.82,625.83,101.92Z" style="fill:#263238"></path><path d="M642.57,108.54a1.71,1.71,0,0,0,1.64,1.7,1.61,1.61,0,0,0,1.74-1.53,1.68,1.68,0,0,0-1.63-1.7A1.62,1.62,0,0,0,642.57,108.54Z" style="fill:#263238"></path><path d="M643.74,102.22c.21.22,1.49-.73,3.31-.73s3.16.91,3.36.68-.12-.49-.71-.91a4.61,4.61,0,0,0-2.68-.83,4.47,4.47,0,0,0-2.64.86C643.82,101.72,643.63,102.12,643.74,102.22Z" style="fill:#263238"></path><path d="M637.15,115.74a12.05,12.05,0,0,0-3-.53c-.46,0-.9-.14-1-.45a2.33,2.33,0,0,1,.31-1.38c.43-1.13.89-2.31,1.37-3.55,1.9-5,3.27-9.19,3.07-9.27s-1.91,4-3.81,9c-.46,1.25-.9,2.44-1.31,3.57a2.67,2.67,0,0,0-.24,1.83,1.16,1.16,0,0,0,.77.67,2.63,2.63,0,0,0,.79.11A11.78,11.78,0,0,0,637.15,115.74Z" style="fill:#263238"></path><path d="M642.52,117c-.3,0-.3,2-2,3.37s-3.79,1.19-3.81,1.47c0,.12.47.38,1.36.4a4.89,4.89,0,0,0,3.18-1.11,4.32,4.32,0,0,0,1.54-2.83C642.87,117.47,642.65,117,642.52,117Z" style="fill:#263238"></path><path d="M643.25,95.08c.18.5,2,.26,4.14.51s3.87.83,4.15.39c.12-.21-.18-.68-.87-1.16a7.24,7.24,0,0,0-6.32-.68C643.57,94.46,643.17,94.85,643.25,95.08Z" style="fill:#263238"></path><path d="M626.49,96.64c.32.42,1.58,0,3.08,0s2.79.27,3.08-.16c.13-.21-.07-.62-.63-1a4.36,4.36,0,0,0-2.51-.67,4.24,4.24,0,0,0-2.45.84C626.52,96,626.35,96.44,626.49,96.64Z" style="fill:#263238"></path><path d="M621.72,95.16c.24-4.52-2.63-7.36,0-11-1.13-.11.84-2.7,0-3.47,2.27-6.49,6.46-7.55,13.27-8.49s10.06-3.61,16.25-.63c2,.93,7.87,6,7.85,9.43,0,.19,0,.1,0,.1A13.56,13.56,0,0,1,663,82.65c1.78,1,3.31,3.57,3.9,5.54.49,1.64.05,3.34,0,5,1.76,1.62,3.89,3,4.51,5.21s-.6,4.8-.17,7.17c.61,3.41,4.19,5.06,4.92,11.37,1.18,10.29-3.85,10.63-6.06,15.31-.91,1.91,0,2.7,1,3.62,3.28,3,3.85,15-1,22.66l-9.83-13.2a4.18,4.18,0,0,1-3.17-5.58,29.53,29.53,0,0,0,1.26-7.71c.18-4.46-3-8.42-3.37-12.86-.3-3.46,1.1-6.81,2.12-10.13a7.14,7.14,0,0,0,.19-3.43,15.38,15.38,0,0,0-2-5.21A16.74,16.74,0,0,1,653,89.51l.72-6.22L652,82.43s-3.51-1.55-8.18,1.52c-2.1,1.39-4.72.87-7,.64A9.41,9.41,0,0,0,630,86.51a7.25,7.25,0,0,0-1.52,1.65c-2.14,3.29-2.06,5.15-3.33,8.84a17.64,17.64,0,0,1-2.56,4.83c-1.92,2.55-4.12,6.29-3.15,9.72C618.19,106.76,621.45,100.1,621.72,95.16Z" style="fill:#263238"></path><path d="M662.21,108.41c.21-.09,8.14-2.42,7.9,5.68s-8.33,6.19-8.33,6S662.21,108.41,662.21,108.41Z" style="fill:#ffbf9d"></path><path d="M663.63,117.05s.14.1.37.22a1.42,1.42,0,0,0,1.06,0c.86-.29,1.62-1.62,1.71-3.08a4.64,4.64,0,0,0-.34-2,1.62,1.62,0,0,0-1-1.11.72.72,0,0,0-.84.36c-.12.22-.07.39-.11.4s-.17-.14-.1-.47a.9.9,0,0,1,.34-.5,1.07,1.07,0,0,1,.78-.19,2,2,0,0,1,1.44,1.31,4.78,4.78,0,0,1,.42,2.27c-.1,1.63-1,3.13-2.16,3.44a1.52,1.52,0,0,1-1.29-.26C663.64,117.25,663.6,117.06,663.63,117.05Z" style="fill:#ff9a6c"></path><path d="M656.48,84h0Z" style="fill:#263238"></path><path d="M622.86,163.83l-.3,0a2.28,2.28,0,0,1-.82-.35,4.05,4.05,0,0,1-1.55-3,7.63,7.63,0,0,1,1.74-5c1.19-1.7,3-3.35,3.72-5.83a13.15,13.15,0,0,0-.67-8.22,42.21,42.21,0,0,0-5-8.31c-1.94-2.83-3.93-6.06-4.44-9.9a16,16,0,0,1,.45-5.78,34.77,34.77,0,0,1,2-5.56c1.63-3.63,3.39-7.13,3.89-10.82s-.07-7.29-.15-10.75.36-6.9,2-9.58a16.79,16.79,0,0,1,6.14-6,8.43,8.43,0,0,1,6.9-1,6.33,6.33,0,0,1,3.62,3.82,5.71,5.71,0,0,1,.24,3.36,4.08,4.08,0,0,1-.31.82,1.11,1.11,0,0,1-.15.26s.18-.37.34-1.11a5.73,5.73,0,0,0-.33-3.24,6.13,6.13,0,0,0-3.52-3.6,8.08,8.08,0,0,0-6.59,1A16.54,16.54,0,0,0,624.2,81a16.75,16.75,0,0,0-1.89,9.32c.09,3.42.68,7.05.18,10.85s-2.3,7.37-3.93,11a34.73,34.73,0,0,0-2,5.47,15.47,15.47,0,0,0-.43,5.56c.46,3.68,2.39,6.85,4.31,9.66s3.91,5.53,5,8.45a13.54,13.54,0,0,1,.61,8.5c-.77,2.62-2.67,4.27-3.85,5.91a7.51,7.51,0,0,0-1.79,4.79,4,4,0,0,0,1.4,2.87A2.93,2.93,0,0,0,622.86,163.83Z" style="fill:#455a64"></path><path d="M643.83,71.3a2.61,2.61,0,0,1,1.67.61,4.83,4.83,0,0,1,.49,7.68,2.67,2.67,0,0,1-1.58.82c0-.1.58-.36,1.29-1.12a4.71,4.71,0,0,0-.45-7C644.45,71.58,643.8,71.4,643.83,71.3Z" style="fill:#455a64"></path><path d="M653.53,74.57c.06,0,.28.33.38,1a4.67,4.67,0,0,1-.33,2.5A4.71,4.71,0,0,1,652,80c-.54.37-.94.46-1,.4a9.89,9.89,0,0,0,2-2.6A9.91,9.91,0,0,0,653.53,74.57Z" style="fill:#455a64"></path><path d="M664,148.71s.29,0,.8-.2a4.26,4.26,0,0,0,1.88-1.29,5.9,5.9,0,0,0,1.38-3.3,11.21,11.21,0,0,0-.87-4.75,58.19,58.19,0,0,1-2.1-5.63,9.35,9.35,0,0,1-.26-3.4,9.83,9.83,0,0,1,1.13-3.43,48.94,48.94,0,0,1,4.46-6.19,17.17,17.17,0,0,0,2-3.4,7.89,7.89,0,0,0,.68-3.89,6.56,6.56,0,0,0-1.6-3.56A19.33,19.33,0,0,0,668.6,107a33.23,33.23,0,0,1-3-2.54,9.36,9.36,0,0,1-2.12-3.16,16.6,16.6,0,0,1-.71-6.89,31.06,31.06,0,0,0,0-5.94,8,8,0,0,0-1.82-4.4,6.25,6.25,0,0,0-3.06-1.89,4.36,4.36,0,0,0-2.28,0c-.51.15-.75.31-.76.28a2.24,2.24,0,0,1,.73-.39A4.12,4.12,0,0,1,658,82a6.42,6.42,0,0,1,3.26,1.89,8.26,8.26,0,0,1,2,4.56,30.78,30.78,0,0,1,.06,6,16.18,16.18,0,0,0,.72,6.67,8.86,8.86,0,0,0,2,3,34.36,34.36,0,0,0,2.93,2.47,19.79,19.79,0,0,1,3,2.74,7.13,7.13,0,0,1,1.75,3.88,8.52,8.52,0,0,1-.73,4.17,17.44,17.44,0,0,1-2.05,3.52,49.51,49.51,0,0,0-4.45,6.1,9.51,9.51,0,0,0-1.1,3.24,8.64,8.64,0,0,0,.23,3.22,58.55,58.55,0,0,0,2,5.61,11.13,11.13,0,0,1,.8,4.92,6,6,0,0,1-1.53,3.43,4.22,4.22,0,0,1-2,1.25A2.61,2.61,0,0,1,664,148.71Z" style="fill:#455a64"></path><path d="M661.71,146a1.61,1.61,0,0,1-.66-.24,3,3,0,0,1-1.22-1.62,5.1,5.1,0,0,1,.07-3.2c.36-1.2.94-2.48,1.28-4a18.08,18.08,0,0,0-.77-10.59c-.69-1.91-2-3.6-2.89-5.77a5.49,5.49,0,0,1-.22-3.52,13.17,13.17,0,0,1,1.66-3.18,6.93,6.93,0,0,0,1.19-3.13,10.46,10.46,0,0,0-.31-3.29c-.51-2.13-1.25-4.26-1.15-6.39a31.91,31.91,0,0,1,.86-5.82,23.6,23.6,0,0,0,.62-5,8.75,8.75,0,0,0-.89-4,6.75,6.75,0,0,0-2-2.37,5.92,5.92,0,0,0-2.44-1,2.25,2.25,0,0,1,.71,0,4.91,4.91,0,0,1,1.86.79,6.86,6.86,0,0,1,2.12,2.4,9,9,0,0,1,1,4.12,22.82,22.82,0,0,1-.55,5.1,33.11,33.11,0,0,0-.8,5.73c-.08,2,.63,4.06,1.17,6.25a10.82,10.82,0,0,1,.33,3.48,7.45,7.45,0,0,1-1.27,3.38,12.65,12.65,0,0,0-1.6,3,4.9,4.9,0,0,0,.2,3.16c.77,2,2.14,3.79,2.85,5.77a18.19,18.19,0,0,1,.67,10.89c-.37,1.53-1,2.82-1.37,4a4.94,4.94,0,0,0-.16,3,3,3,0,0,0,1.06,1.59C661.48,146,661.72,146,661.71,146Z" style="fill:#455a64"></path><path d="M666.65,87.47a14,14,0,0,0-1.51-2.39A10.39,10.39,0,0,0,663,83a10.68,10.68,0,0,0-3.43-1.34,3.61,3.61,0,0,0-1.58.09l-.38.12,0-.39a8.64,8.64,0,0,0-1.2-5.36c-.74-1.22-1.42-1.78-1.36-1.85s.21.1.51.37a7.2,7.2,0,0,1,1.13,1.29,8.48,8.48,0,0,1,1.42,5.61l-.33-.27a3.85,3.85,0,0,1,1.82-.12,10.36,10.36,0,0,1,3.61,1.45,9.77,9.77,0,0,1,2.21,2.28A5.17,5.17,0,0,1,666.65,87.47Z" style="fill:#455a64"></path><path d="M665,123.85a2.86,2.86,0,0,1,0-5.71v1a1.86,1.86,0,1,0,1.57.86l.85-.54a2.86,2.86,0,0,1-2.42,4.39Z" style="fill:#e0e0e0"></path><path d="M635.61,132.75c-.1.09-.83-.62-1.33-1.74a3.27,3.27,0,0,1-.43-2.15c.15,0,.42.88.9,1.93S635.73,132.66,635.61,132.75Z" style="fill:#263238"></path><path d="M636.27,132.27c-.14,0-.48-.64-.78-1.53s-.42-1.64-.29-1.69.49.64.78,1.53S636.41,132.22,636.27,132.27Z" style="fill:#263238"></path><path d="M637.16,132.55a9,9,0,0,1,.05-2.14,8.53,8.53,0,0,1,.08-2.14,3.27,3.27,0,0,1,.44,2.15A3.23,3.23,0,0,1,637.16,132.55Z" style="fill:#263238"></path><path d="M639.49,127.11a3.4,3.4,0,0,1,.33,2.51,3.33,3.33,0,0,1-1.09,2.29c-.13-.08.38-1.06.57-2.37S639.34,127.14,639.49,127.11Z" style="fill:#263238"></path><path d="M579.74,215.58s-5.11-5.36-7-6.45-8.51-3.55-10.6-5.72a1.81,1.81,0,0,0-.89,3,20.54,20.54,0,0,0,6.09,5.58c1.64.82.87,2-.45,2.18s-10.45.11-10.45.11-10.33-1.66-11.36-.77a1.84,1.84,0,0,0,.2,2.87c.56.32,9.29,2.52,9.29,2.52l4.64.29s-14.59,0-15.61,1.07a1.58,1.58,0,0,0,.17,2.54c.65.57,7.08.49,7.08.49l8.67.5-16.22,1.6s-1.52.34-1.43,1.55,1.94,1.82,1.94,1.82l16.89-.19s-9,4.14-9.38,4.82c-.55.91.93,2.1,1.64,1.81s11.74-2.8,11.74-2.8l12.67-3.19,7.73,1.51-.74-15Z" style="fill:#ff9a6c"></path><path d="M612.22,236.08l-33.16-6.58,3.17-13.73,36.89-.71L618.78,188l25.28-1.16a250.85,250.85,0,0,1-1.26,38.67s-.25,10.78-12.65,11.52A109.84,109.84,0,0,1,612.22,236.08Z" style="fill:#ff9a6c"></path><path d="M637.55,439.55v37.76l-49.7.11c.26-4.48,25.93-13.55,25.93-13.55l-1-24.2Z" style="fill:#455a64"></path><g style="opacity:0.6000000000000001"><path d="M629.13,461.79a1.82,1.82,0,1,1-.86,3.53,2,2,0,0,1-1.49-2.32,2.07,2.07,0,0,1,2.54-1.15" style="fill:#fff"></path></g><g style="opacity:0.6000000000000001"><path d="M637.54,477.31l-.16-3.81L589.79,475s-2.21.91-1.95,2.38Z" style="fill:#fff"></path></g><path d="M613.7,464c0,.22,1.22.33,2.42,1.06s1.84,1.7,2.06,1.61-.15-1.42-1.61-2.28S613.64,463.73,613.7,464Z" style="fill:#263238"></path><path d="M608,466.06c0,.22,1,.61,1.83,1.58s1.07,2,1.31,2,.39-1.31-.66-2.49S608,465.84,608,466.06Z" style="fill:#263238"></path><path d="M605,472c.22.05.55-1.1-.08-2.35s-1.77-1.75-1.87-1.56.61.86,1.11,1.9S604.76,471.93,605,472Z" style="fill:#263238"></path><path d="M613.61,459.16c.1.2,1.21-.11,2.59,0s2.44.49,2.56.29-.9-1-2.52-1.09S613.49,459,613.61,459.16Z" style="fill:#263238"></path><path d="M614.53,452.51a4.83,4.83,0,0,0,2.49,0,11.78,11.78,0,0,0,2.6-.77A10.54,10.54,0,0,0,621,451a3.1,3.1,0,0,0,.75-.55,1,1,0,0,0,.11-1.22,1.35,1.35,0,0,0-1.07-.52,3.56,3.56,0,0,0-.93.12,9.08,9.08,0,0,0-1.55.51,8.84,8.84,0,0,0-2.28,1.42c-1.15,1-1.54,1.87-1.46,1.92s.67-.65,1.84-1.48a9.62,9.62,0,0,1,3.64-1.61c.53-.13,1-.13,1.11.09s.06.11-.05.26a2.61,2.61,0,0,1-.55.4,12.27,12.27,0,0,1-1.32.72,14,14,0,0,1-2.4.88A17.6,17.6,0,0,0,614.53,452.51Z" style="fill:#263238"></path><path d="M614.85,452.84a3.64,3.64,0,0,0,.64-2.27,7.34,7.34,0,0,0-.35-2.58,8.08,8.08,0,0,0-.64-1.42,2.06,2.06,0,0,0-1.6-1.19,1.16,1.16,0,0,0-1,.66,2.65,2.65,0,0,0-.25.86,5,5,0,0,0,0,1.59,5.25,5.25,0,0,0,1.08,2.43c1,1.21,2,1.48,2,1.41s-.77-.56-1.52-1.73a5.17,5.17,0,0,1-.8-2.21,4.81,4.81,0,0,1,0-1.36c.08-.5.27-.9.47-.85s.67.37.88.77a8.24,8.24,0,0,1,.62,1.27,7.66,7.66,0,0,1,.49,2.35C615,452,614.71,452.81,614.85,452.84Z" style="fill:#263238"></path><path d="M684.57,423.65l20.73,26.4-34.67,27.37c-2.28-3.28,10.68-23.71,10.68-23.71l-14-16.34Z" style="fill:#455a64"></path><g style="opacity:0.6000000000000001"><path d="M690.9,443.82a1.71,1.71,0,0,1,2.19.75,1.73,1.73,0,0,1-.86,2.19,1.8,1.8,0,0,1-2.31-.81,1.83,1.83,0,0,1,1.14-2.19" style="fill:#fff"></path></g><g style="opacity:0.6000000000000001"><path d="M705.3,450.05l-2.2-2.58-32.42,27.21s-1,1.86,0,2.74Z" style="fill:#fff"></path></g><path d="M681.26,454c.13.16,1-.44,2.27-.58s2.22.17,2.33,0-.88-.91-2.38-.71S681.1,453.87,681.26,454Z" style="fill:#263238"></path><path d="M678.51,458.63c.08.18,1-.13,2.14.09s1.85.81,2,.67-.45-1.13-1.84-1.38S678.39,458.47,678.51,458.63Z" style="fill:#263238"></path><path d="M679.53,464.36c.18-.09-.22-1.07-1.35-1.6s-2.19-.25-2.16-.06.9.27,1.82.72S679.35,464.48,679.53,464.36Z" style="fill:#263238"></path><path d="M678.54,450.23c.19.08.79-.75,1.8-1.44s2-1,1.95-1.21-1.19-.21-2.36.63S678.36,450.17,678.54,450.23Z" style="fill:#263238"></path><path d="M675.6,445.36c0,.06.8-.36,1.73-1.38a10.79,10.79,0,0,0,1.4-2,11,11,0,0,0,.6-1.29,3,3,0,0,0,.22-.8.87.87,0,0,0-.6-.91,1.21,1.21,0,0,0-1,.22,3.21,3.21,0,0,0-.58.6,7.73,7.73,0,0,0-1.62,3.46,3.45,3.45,0,0,0,0,2.13c.12,0,.12-.81.48-2a8.72,8.72,0,0,1,.89-2.05,8.19,8.19,0,0,1,.77-1.07c.29-.38.6-.63.82-.55s.1,0,.11.21a2.08,2.08,0,0,1-.17.59,11.18,11.18,0,0,1-.52,1.22,12,12,0,0,1-1.2,1.93C676.15,444.71,675.53,445.27,675.6,445.36Z" style="fill:#263238"></path><path d="M676,445.41c.08,0,0-.86-.8-1.94a6.24,6.24,0,0,0-1.66-1.61,6.77,6.77,0,0,0-1.23-.64,1.81,1.81,0,0,0-1.76,0,1,1,0,0,0-.36,1,2.73,2.73,0,0,0,.29.75,4.39,4.39,0,0,0,.88,1.1,4.72,4.72,0,0,0,2.08,1.11,2.92,2.92,0,0,0,2.18-.12,19.06,19.06,0,0,1-2-.38,4.59,4.59,0,0,1-1.77-1.1,3.89,3.89,0,0,1-.72-1c-.23-.39-.31-.78-.14-.86a1.3,1.3,0,0,1,1,.06,6.24,6.24,0,0,1,1.13.55,7.25,7.25,0,0,1,1.64,1.37C675.6,444.72,675.89,445.46,676,445.41Z" style="fill:#263238"></path><path d="M672.92,270.72l-.22,2.55A87.87,87.87,0,0,1,669.33,291l-.22.73a31.91,31.91,0,0,1-7.87,13.47c-3.83,3.91-8.35,8.55-9.08,9.46l-17.4,59.79,5.53,79.26-31.56,2.64S595,375.56,596.82,363s13.23-96.38,13.23-96.38l3.26-5.87Z" style="fill:#263238"></path><polygon points="649.22 316.86 653.35 375.25 696.27 431.71 670.22 450.09 612.49 384.81 610.71 308.25 649.22 316.86" style="fill:#263238"></polygon><path d="M652.16,314.68a1,1,0,0,0-.11.28l-.29.82c-.24.77-.59,1.84-1,3.21-.89,2.83-2.17,6.89-3.76,11.92l-12.54,40.36,0,.05v.05c.23,3.42.47,7,.71,10.63,1.34,19.26,2.56,36.69,3.44,49.35.46,6.29.84,11.39,1.11,15,.14,1.73.25,3.09.33,4.06,0,.44.07.79.1,1.05a1.45,1.45,0,0,0,0,.36,2,2,0,0,0,0-.36c0-.27,0-.62,0-1.06-.05-1-.13-2.33-.22-4.07-.22-3.57-.54-8.67-.92-15-.84-12.67-2-30.1-3.27-49.37-.25-3.64-.49-7.21-.73-10.63v.11c4.91-16.06,9.24-30.22,12.36-40.41,1.52-5.06,2.74-9.14,3.6-12,.4-1.38.72-2.46,1-3.24.09-.34.17-.62.23-.84A1.09,1.09,0,0,0,652.16,314.68Z" style="fill:#455a64"></path><path d="M657.1,142.64s17.26,17.33,17.9,31c.32,6.9-.52,76-.52,76l1.64,22.84-68.89-3.56,2.88-35.26,5.75-39.22c2.77-13.07,4.16-23.92,11.25-37l6.84-10Z" style="fill:#FFC100"></path><path d="M665.3,204.63,631.09,198s3.43-22.68,5.7-28.4,11-17.61,23.11-12.88c0,0,8.68,2.29,8.65,11.45C668.54,170.47,665.3,204.63,665.3,204.63Z" style="fill:#FFC100"></path><polygon points="674.57 242.34 639.38 238.73 637.44 181.62 616.9 176.5 606.57 260.75 590.45 370.7 622.94 373.86 643.28 266.4 675 256.88 674.57 242.34" style="fill:#455a64"></polygon><path d="M567.29,195s-4.72-1.64-6.62-1.24-3.32,3-3.32,3l8.07,5.31Z" style="fill:#263238"></path><path d="M554.85,195.61a8.73,8.73,0,0,0,3.4,4.56c2.57,1.61,3.88.54,3.88.54l.59-1.77Z" style="fill:#e0e0e0"></path><path d="M569.4,193.48a4.14,4.14,0,0,1,1-3.22,15.43,15.43,0,0,1,4.38-2.74l11,1.52,13.43,6.13-4.88,14-3.93-2.81s-10.62,4.4-12.64,4.32-3.83-2.4-3.83-2.4-3.78,1.64-4.17-2.53c0,0-3.87,1.31-4.33-1.3,0,0-2.37.25-3-1.58s-.64-3.5.17-4.31S569.4,193.48,569.4,193.48Z" style="fill:#ffbf9d"></path><path d="M636.59,199.17l-2.14,9.12L596,193.71l-5.59,12.64s30.36,19.87,38.55,24.08c7.59,3.9,12.86,4.79,16.62,3.59a10.5,10.5,0,0,0,3.07-1.69,15.59,15.59,0,0,0,4.87-6.46l5.52-22.46Z" style="fill:#ffbf9d"></path><path d="M568.93,198.92c.1.12-1.11,1.07-2.06,2.65s-1.24,3.08-1.39,3.06a6.57,6.57,0,0,1,3.45-5.71Z" style="fill:#ff9a6c"></path><path d="M571.94,203.9c.07.12-.41.56-1,1.07s-1.13.91-1.24.81.26-.68.91-1.21S571.86,203.78,571.94,203.9Z" style="fill:#ff9a6c"></path><path d="M576.65,206.59c.05.14-.56.5-1.29.93s-1.34.8-1.44.69.39-.67,1.17-1.13S576.6,206.46,576.65,206.59Z" style="fill:#ff9a6c"></path><path d="M628.14,180.3s5.38-29.75,25.35-32.31c25.73-3.29,21.58,41.7,21.58,41.7s-3.69-40.59-19.29-39.14c-17.66,1.65-22.93,32.39-22.93,32.39Z" style="fill:#455a64"></path><path d="M669.43,250.42s.08-.08.26-.2l.8-.55,3.1-2.06,11.46-7.5L693,235a11.24,11.24,0,0,1,2.35-1.18,5.15,5.15,0,0,1,2.76-.21,3.43,3.43,0,0,1,2.34,1.65,3.51,3.51,0,0,1,.09,2.94,5.29,5.29,0,0,1-1.86,2.35,16.07,16.07,0,0,1-2.6,1.52q-2.69,1.33-5.6,2.51a78.68,78.68,0,0,1-12.32,3.85c-1.44.33-2.88.6-4.23.84v-.52a30.71,30.71,0,0,1,19.2,12.66,11.78,11.78,0,0,1,1.35,2.33,4.1,4.1,0,0,1,.27,2.65,2.62,2.62,0,0,1-1.73,1.94,3.73,3.73,0,0,1-2.5-.26,35.93,35.93,0,0,1-7.36-4.89,39.46,39.46,0,0,1-8.2-9.66c-.76-1.29-1.29-2.32-1.62-3-.15-.34-.27-.6-.37-.81a2.27,2.27,0,0,1-.11-.29,1.77,1.77,0,0,1,.16.27l.41.79c.36.69.92,1.7,1.7,3a40.74,40.74,0,0,0,8.26,9.49,36.47,36.47,0,0,0,7.29,4.77,3.33,3.33,0,0,0,2.21.24,2.19,2.19,0,0,0,1.42-1.64,3.69,3.69,0,0,0-.25-2.37,11.88,11.88,0,0,0-1.32-2.23,30.3,30.3,0,0,0-18.91-12.42l-1.38-.27,1.39-.24c1.34-.23,2.77-.5,4.2-.82a80.15,80.15,0,0,0,12.24-3.82c1.92-.77,3.78-1.61,5.57-2.49a15.61,15.61,0,0,0,2.53-1.46,4.93,4.93,0,0,0,1.7-2.13,3.06,3.06,0,0,0-.05-2.55,3,3,0,0,0-2-1.42c-1.72-.4-3.38.44-4.79,1.31l-8,5.1-11.55,7.36-3.15,2-.83.5A2,2,0,0,1,669.43,250.42Z" style="fill:#455a64"></path><path d="M623.25,230.23l-3.1-.48L623,231l0,.05-2.94-.95-.09.27,2.95,1-.09.27-3-1-.09.27,3,1-.08.27-2.95-1-.09.27,3,1-.09.27-3-1-.09.27,3,1-.09.27-2.95-1-.09.28,3,.95-.08.27-3-1-.09.27,3,.95-.09.27-3-.95-.09.27,3,1-.09.27-3-1-.09.27,3,1-.08.27-3-1-.09.27,3,1-.08.27-3-1-.09.27,3,1-.09.27-3-1-.09.27,3,1-.09.27-3-1-.09.27,3,1-.08.27-3-1-.09.27,3,1-.09.27-3-1-.09.27,3,1-.09.27-3-1-.09.28,3,1-.08.27-3-1-.09.27,3,1-.09.27-3-1-.09.27,3,1-.09.27-3-1-.09.27,3,1-.08.27-3-1-.08.27,3,1-.09.27-3-1-.09.27,3,1-.09.27-3-1-.08.27,3,1-.09.27-3-1-.09.27,3,1-.08.27-3-1-.08.27,3,1-.09.27-3-1-.09.27,3,1-.09.27-3-1-.08.28,3,1-.08.27-3-1-.09.27,3,1-.09.27-3-1-.08.27,3,1-.09.27-3-1-.09.27,3,1-.08.27-3-1-.08.27,3,1-.05.16-3-1s2.53,2.42,2.24,3.32-4.82,15.31-4.1,15.54h0s.42.14,3.4-9.06L624.15,232A1.19,1.19,0,0,0,623.25,230.23Z" style="fill:#263238"></path><path d="M610.45,242a40.08,40.08,0,0,1-1.91-5,3,3,0,0,1,.44-1.9h0a3.34,3.34,0,0,0,.55-2.77,2.91,2.91,0,0,0-3.26-2.47h0a2.72,2.72,0,0,0-2.28-1.91c-.44,0-.47.64,0,.68a2,2,0,0,1,1.68,1.5,3.07,3.07,0,0,0-1.2,3.35,3.17,3.17,0,0,0,2.11,2.43h0c1.28.8,3.27,6.44,3.27,6.44Zm-5.51-8.65a2.1,2.1,0,1,1,2.56,1.94A2.29,2.29,0,0,1,604.94,233.32Z" style="fill:#e0e0e0"></path><path d="M615.21,236.19h0a3.23,3.23,0,0,0,2.28-2.27,2.67,2.67,0,1,0-5-1.53,3.32,3.32,0,0,0,.34,2.8h0a3,3,0,0,1,.3,1.93,39.69,39.69,0,0,1-2.27,4.86l.67.39S613.88,236.89,615.21,236.19ZM613,232.55a2.1,2.1,0,1,1,4,1.2,2.1,2.1,0,1,1-4-1.2Z" style="fill:#e0e0e0"></path><path d="M609.92,260.06c1.51.05,1.81-17.95,1.81-17.95l-.5-.91-1.13,0-.69.87S608.42,260,609.92,260.06Z" style="fill:#e0e0e0"></path><path d="M610,243.23a.58.58,0,0,1,.59-.55.57.57,0,0,1,.54.59.57.57,0,0,1-1.13,0Z" style="fill:#fff"></path><path d="M603,244l1.92,29.44c2.25,3.54,6.56,3.81,10.24,1.81,3-1.6,4.65-4.77,5.91-7.87a57.6,57.6,0,0,0,4.22-21Z" style="fill:#455a64"></path><path d="M603,244l.38,0,1.17.1,4.5.43,16.27,1.64.19,0v.2a57.68,57.68,0,0,1-1.32,11.74,54.74,54.74,0,0,1-1.75,6.28,38,38,0,0,1-2.67,6.29,13.48,13.48,0,0,1-3,3.74,10.26,10.26,0,0,1-4.19,2.05,8,8,0,0,1-4.51-.19,6.75,6.75,0,0,1-3.35-2.75l0-.05v-.06c-.51-8.65-.95-16-1.27-21.3-.13-2.55-.25-4.59-.33-6,0-.66,0-1.19-.07-1.59a3,3,0,0,1,0-.53,5.23,5.23,0,0,1,.06.59c0,.41.08,1,.14,1.64.11,1.46.27,3.51.46,6.09.37,5.22.89,12.53,1.5,21.11l0-.12a6.32,6.32,0,0,0,3.12,2.54,7.46,7.46,0,0,0,4.22.16,9.82,9.82,0,0,0,4-1.95,12.88,12.88,0,0,0,2.88-3.6,39,39,0,0,0,2.63-6.2,55.91,55.91,0,0,0,1.75-6.22,57.6,57.6,0,0,0,1.37-11.63l.2.22-16.09-1.86-4.54-.54-1.21-.16Z" style="fill:#263238"></path><path d="M640.42,218.12c-.16,0-.94-2.47-2.6-5.23s-3.47-4.66-3.35-4.77a14.46,14.46,0,0,1,3.8,4.51A14.61,14.61,0,0,1,640.42,218.12Z" style="fill:#ff9a6c"></path><path d="M556.38,193.05a83.87,83.87,0,0,0,2.38-14.3,29.36,29.36,0,0,0-2.43-14.15c-.32-.66-2.9-5.06-3.63-4.92-.51.1,1.21,4.26,1,4.73-2.12,4.54-2.33,9.77-1.48,14.7a65.58,65.58,0,0,0,4.17,13.94" style="fill:#455a64"></path><path d="M555,174.92c.51-12.62-6.41-23.44-19-23.61l-1.17.06a22.58,22.58,0,0,0-21.55,21.76c-.39,10.94-.67,23-.34,28.89.7,12.1,12.9,13.43,12.9,13.43L526,229c.27,8.57,7.75,5.66,16.27,4.7h0c7.47-.84,11.09-6.86,11-14.37Z" style="fill:#ae7461"></path><path d="M525.77,215.45a28.26,28.26,0,0,0,15.59-5.2s-3.34,8.88-15.47,8.34Z" style="fill:#6f4439"></path><path d="M516.85,183.38a1.72,1.72,0,0,0,1.75,1.67,1.65,1.65,0,0,0,1.71-1.64,1.74,1.74,0,0,0-1.75-1.67A1.66,1.66,0,0,0,516.85,183.38Z" style="fill:#263238"></path><path d="M515.89,178.31c.22.22,1.49-.81,3.35-.89s3.27.79,3.46.55-.14-.5-.76-.9a4.75,4.75,0,0,0-2.78-.73,4.5,4.5,0,0,0-2.65,1C516,177.8,515.78,178.22,515.89,178.31Z" style="fill:#263238"></path><path d="M532.66,183.38a1.73,1.73,0,0,0,1.75,1.67,1.65,1.65,0,0,0,1.71-1.64,1.74,1.74,0,0,0-1.75-1.67A1.66,1.66,0,0,0,532.66,183.38Z" style="fill:#263238"></path><path d="M534.41,177c.2.24,1.57-.65,3.43-.52s3.16,1.14,3.38.92-.09-.51-.65-1a4.76,4.76,0,0,0-2.69-1,4.56,4.56,0,0,0-2.75.7C534.53,176.45,534.31,176.84,534.41,177Z" style="fill:#263238"></path><path d="M528.28,192.57a11.82,11.82,0,0,0-3-.41c-.48,0-.93-.1-1-.42a2.38,2.38,0,0,1,.25-1.43c.39-1.17.81-2.39,1.24-3.68,1.72-5.24,2.94-9.54,2.73-9.61s-1.78,4.13-3.5,9.37c-.41,1.29-.8,2.52-1.18,3.7a2.77,2.77,0,0,0-.16,1.88,1.18,1.18,0,0,0,.81.66,3,3,0,0,0,.81.07A12.42,12.42,0,0,0,528.28,192.57Z" style="fill:#263238"></path><path d="M533.79,168.93c.21.5,2.06.18,4.25.34s4,.68,4.26.22c.12-.23-.21-.69-.94-1.15a7.25,7.25,0,0,0-3.2-1,7.18,7.18,0,0,0-3.29.54C534.09,168.28,533.7,168.7,533.79,168.93Z" style="fill:#263238"></path><path d="M516.47,171.75c.35.41,1.61-.09,3.15-.18s2.86.15,3.14-.3c.12-.22-.1-.64-.69-1a4.55,4.55,0,0,0-5.07.39C516.48,171.1,516.32,171.55,516.47,171.75Z" style="fill:#263238"></path><path d="M554.4,183.94c.2-.1,8.21-2.84,8.32,5.45s-9.2,7.13-9.22,6.89S554.4,183.94,554.4,183.94Z" style="fill:#ae7461"></path><path d="M557,192.67s.14.1.39.21a1.51,1.51,0,0,0,1.08,0c.87-.34,1.59-1.74,1.61-3.23a4.91,4.91,0,0,0-.43-2.07,1.66,1.66,0,0,0-1.1-1.09.73.73,0,0,0-.85.41c-.11.23,0,.4-.1.41s-.18-.14-.11-.48a.88.88,0,0,1,.32-.52,1.08,1.08,0,0,1,.79-.23,2.06,2.06,0,0,1,1.53,1.27,4.91,4.91,0,0,1,.53,2.3c0,1.68-.87,3.25-2.06,3.61a1.54,1.54,0,0,1-1.32-.2C557,192.87,556.93,192.68,557,192.67Z" style="fill:#6f4439"></path><path d="M516.67,161.92c-.27-2.43,3.08-7.61,6.41-9.28,5-2.52,12.82-4.25,17.6-3.08,5.76,1.39,10.6,4.05,13.65,9.12a33.59,33.59,0,0,1,4.41,17,10.13,10.13,0,0,1-1,5.26c-1.12,1.93-3.36,3.2-3.16,5.8a3.62,3.62,0,0,1-.79,2.64c-1.5,1.72-3.47.23-4.41-1.3-2-3.27-2.36-7.25-2.67-11.08a25.18,25.18,0,0,1,.23-8.13c.37-1.44,1-2.81,1.27-4.27a5.1,5.1,0,0,0-.76-4.23,6.2,6.2,0,0,0-.72-.68,8.92,8.92,0,0,0-8.9-1.34c-4.74,1.88-12.85,4.73-15.05,3.18-3.17-2.23-3.52-3.1-3.52-3.1Z" style="fill:#455a64"></path><path d="M534.16,192.71c-.3,0-.22,2-1.88,3.52s-3.82,1.39-3.83,1.67c0,.13.5.38,1.41.36a5.07,5.07,0,0,0,3.2-1.28,4.37,4.37,0,0,0,1.45-2.95C534.55,193.18,534.3,192.69,534.16,192.71Z" style="fill:#263238"></path><path d="M534,159.78c8.63-3.68,15.48-4.54,22,2.19,2.05-1.17.66-2.95-1.42-4.07a4.53,4.53,0,0,0-5.08-6.78,3.77,3.77,0,0,0,.41-5,5.41,5.41,0,0,0-4.91-1.92,10,10,0,0,0-5,2.25,5.54,5.54,0,0,0-10.95-1.36,5.47,5.47,0,0,0-8.72,5.89,4.33,4.33,0,0,0-3.12,4.13c0,1.86.64,2.08,2,3.51,0,0,1.16,4.13,6.73,3.25A35.87,35.87,0,0,0,534,159.78Z" style="fill:#263238"></path><path d="M530.14,149a25.44,25.44,0,0,0-4.4,5.52,25.93,25.93,0,0,0-2.24,6.7,6.19,6.19,0,0,1,.11-2.12,15.54,15.54,0,0,1,4.82-8.86A5.86,5.86,0,0,1,530.14,149Z" style="fill:#455a64"></path><path d="M538.5,148.59c0,.09-1,.35-2.56,1a21,21,0,0,0-9.73,8.56c-.86,1.45-1.24,2.44-1.33,2.41a2.35,2.35,0,0,1,.19-.73,13.73,13.73,0,0,1,.82-1.86,18.84,18.84,0,0,1,9.91-8.72,12.46,12.46,0,0,1,2-.57C538.23,148.59,538.49,148.55,538.5,148.59Z" style="fill:#455a64"></path><path d="M546.3,151.46a13.39,13.39,0,0,1-8.37,4.28c0-.15,2-.65,4.33-1.84S546.19,151.34,546.3,151.46Z" style="fill:#455a64"></path><path d="M577.25,470.31c0-3.76-20.43-11.18-25.85-13.26s-10.83-6.57-12.11-13.27c-.76-4,7.65-61.81,7.65-61.81l-24.72.88H489.81s9.86,56.9,9.09,60.93c-1.28,6.7-6.69,11.18-12.11,13.27S461,465.8,461,469.55l54.08.23v0Z" style="fill:#e0e0e0"></path><path d="M539.05,442.91a10.94,10.94,0,0,1-1.52.48c-1,.28-2.41.63-4.2,1a74.71,74.71,0,0,1-28.38.12c-1.79-.35-3.23-.68-4.21-1a8.58,8.58,0,0,1-1.52-.47,10.88,10.88,0,0,1,1.56.27c1,.22,2.44.49,4.23.79a83.39,83.39,0,0,0,28.25-.11c1.79-.32,3.23-.6,4.23-.83A8.89,8.89,0,0,1,539.05,442.91Z" style="fill:#263238"></path><g style="opacity:0.2"><path d="M501.59,447.44l-.62.34c-3.22,7.92-7.61,11.47-24.83,17.75,0,0,7.63-.49,10.27-.56l18.61.13c.32-.14,3.53-5.5,4.94-7.74q2.81-4.44,5.31-9.06A25.28,25.28,0,0,1,501.59,447.44Z"></path></g><g style="opacity:0.2"><path d="M503.72,439.79c-3.51-17.25-5.4-34.24-8.1-51.36H507l7.89,53.6S504.18,442.05,503.72,439.79Z"></path></g><path d="M558,380.67h5.32a5.54,5.54,0,0,0,5.5-4.87c1.05-8.68,3.13-32.86,3.16-33.11l-3.8-.32c0,.24-2.1,24.35-3.14,33a1.74,1.74,0,0,1-1.72,1.52H558Z" style="fill:#e0e0e0"></path><path d="M558,380.67s0-.09,0-.26,0-.43,0-.74c0-.67,0-1.61,0-2.81L558,377l3,0h1.77a5.38,5.38,0,0,0,1,0,1.84,1.84,0,0,0,.94-.5,1.87,1.87,0,0,0,.52-1c.06-.37.08-.71.12-1.08.07-.73.15-1.49.23-2.27.15-1.57.32-3.24.49-5,.69-7.05,1.51-15.54,2.4-24.74l-.24.2,2.82.24,1,.09-.21-.25c-1.2,12.86-2.28,24.44-3.06,32.86a5.46,5.46,0,0,1-2.92,4.43,8.52,8.52,0,0,1-4.11.63l-2.69.05-.72,0H558s.07,0,.22,0l.69,0,2.71.05c.6,0,1.26,0,2,0a5.52,5.52,0,0,0,2.29-.59,5.72,5.72,0,0,0,3.11-4.62c.82-8.41,1.95-20,3.2-32.85l0-.22-.22,0-1-.09-2.81-.24-.22,0,0,.23c-.87,9.2-1.66,17.69-2.32,24.74-.16,1.76-.31,3.43-.46,5-.07.78-.14,1.54-.2,2.27,0,.36-.06.74-.11,1.07a1.52,1.52,0,0,1-.43.83,1.58,1.58,0,0,1-.79.43,5.62,5.62,0,0,1-.92.05h-1.77l-3,0h-.09v.08c0,1.23,0,2.18,0,2.86,0,.3,0,.54,0,.72S558,380.68,558,380.67Z" style="fill:#263238"></path><path d="M473.14,385.33h85a5.73,5.73,0,0,0,5.73-5.74h0a5.73,5.73,0,0,0-5.73-5.73h-85a5.74,5.74,0,0,0-5.74,5.73h0A5.74,5.74,0,0,0,473.14,385.33Z" style="fill:#455a64"></path><path d="M576.33,345.54l11.6-91a5.73,5.73,0,0,0-5-6.41h0a5.73,5.73,0,0,0-6.41,5l-11.6,91a5.73,5.73,0,0,0,5,6.41h0A5.73,5.73,0,0,0,576.33,345.54Z" style="fill:#455a64"></path><path d="M470,385.33c0,.12,20,.22,44.65.22s44.66-.1,44.66-.22-20-.23-44.66-.23S470,385.2,470,385.33Z" style="fill:#263238"></path><path d="M419.74,424.8l-1.39,27.56s-28.29,7.28-29,12.35l53.15,5.17L446.38,427Z" style="fill:#455a64"></path><path d="M442.46,469.88l.31-3.42-51.69-4A4.05,4.05,0,0,0,389,465Z" style="fill:#263238"></path><path d="M417.85,452.49c0,.26,1.29.49,2.51,1.45s1.81,2.12,2.06,2,0-1.63-1.51-2.76S417.81,452.24,417.85,452.49Z" style="fill:#263238"></path><path d="M412,454.33c-.08.25,1,.79,1.82,2s.95,2.38,1.21,2.39.56-1.45-.46-2.91S412,454.08,412,454.33Z" style="fill:#263238"></path><path d="M408.23,460.8c.23.07.71-1.2.16-2.7s-1.72-2.17-1.85-2,.56,1,1,2.27S408,460.75,408.23,460.8Z" style="fill:#263238"></path><path d="M418.87,446.2c.09.25,1.33,0,2.8.22s2.59.79,2.75.58-.88-1.24-2.62-1.49S418.76,446,418.87,446.2Z" style="fill:#263238"></path><path d="M396.77,377.84l-11.62,21.74s-25.64-4.88-28.18-1.07l41,24.42,19.49-33.14Z" style="fill:#455a64"></path><path d="M398,422.93l1.55-2.64-40.26-22.91a3.67,3.67,0,0,0-2.62,1.23Z" style="fill:#263238"></path><path d="M384.69,399.5c-.11.21.86.89,1.48,2.13s.65,2.4.89,2.43.61-1.33-.17-2.81S384.76,399.29,384.69,399.5Z" style="fill:#263238"></path><path d="M379.28,398.77c-.17.17.51,1,.7,2.29s-.13,2.29.07,2.39,1-1,.74-2.53S379.39,398.58,379.28,398.77Z" style="fill:#263238"></path><path d="M373.75,402.56c.16.15,1-.71,1.16-2.12s-.57-2.42-.75-2.3.06,1.06-.06,2.22S373.56,402.42,373.75,402.56Z" style="fill:#263238"></path><path d="M387.91,394.81c0,.23,1.08.49,2.18,1.24s1.79,1.63,2,1.52-.23-1.34-1.55-2.2S387.91,394.59,387.91,394.81Z" style="fill:#263238"></path><path d="M389.84,389.79c0,.08.68.67,2.09,1.2a11,11,0,0,0,2.58.6,13.13,13.13,0,0,0,1.56.06,3.27,3.27,0,0,0,.92-.13,1,1,0,0,0,.72-1,1.29,1.29,0,0,0-.62-1,3.26,3.26,0,0,0-.85-.35,8.82,8.82,0,0,0-1.55-.3A8.64,8.64,0,0,0,392,389c-1.49.33-2.26.9-2.21,1s.89-.24,2.31-.41a9,9,0,0,1,3.88.36c.51.14.88.36.88.62,0,.1,0,.13-.18.21a2.45,2.45,0,0,1-.67.08,12,12,0,0,1-1.47,0,13.16,13.16,0,0,1-2.46-.4A14.68,14.68,0,0,0,389.84,389.79Z" style="fill:#263238"></path><path d="M561.61,338c-.05-.57-.08-.89-.08-.89Z" style="fill:#263238"></path><path d="M562.45,338l-61.39-23s-36.27-16.93-49.45-20.56c-14.12-3.89-26.85,6.72-34.71,23.18C411.57,328.8,383.32,394,383.32,394l24.95,16.48,44.27-80.88,69,44.76s13.59-.27,26.74-.27C560.12,374.05,562.86,343.42,562.45,338Z" style="fill:#263238"></path><polygon points="561.61 338 561.61 338 561.61 338 561.61 338" style="fill:#263238"></polygon><path d="M413.65,448.74,421,360s1.52-19.85,13-23.81,24.83-2.36,24.83-2.36L523,374.29l-65.83,1.13s-3.35,13.86-4.31,19.86c-1.14,7.17-7.46,54.56-7.46,54.56Z" style="fill:#263238"></path><path d="M521.51,370.77l-.3-.19-.89-.55L516.86,368l-13-7.76-19.92-11.8-12.07-7.14-6.48-3.82-6.83-3.86,0,0h-.05l-8.93-.28h0a62.92,62.92,0,0,0-11.56,1.49,23.84,23.84,0,0,0-2.88.89c-.9.47-1.81.92-2.68,1.46l-1.24.9-.62.45-.56.53-1.13,1c-.36.37-.68.78-1,1.17a28.22,28.22,0,0,0-5.12,9.54,40.69,40.69,0,0,0-2,10.35c-.62,6.86-1.21,13.48-1.78,19.78-1.12,12.61-2.14,24-3,33.5s-1.51,17.24-2,22.59c-.23,2.66-.4,4.72-.52,6.14-.05.7-.09,1.23-.12,1.6s0,.55,0,.55,0-.18.08-.54.09-.91.16-1.6c.14-1.42.34-3.48.6-6.13.5-5.35,1.23-13.06,2.12-22.58s1.93-20.89,3.09-33.49c.57-6.31,1.18-12.93,1.8-19.79a40.62,40.62,0,0,1,1.95-10.24,28.16,28.16,0,0,1,5.05-9.39c.33-.38.64-.79,1-1.14l1.1-1,.55-.51.6-.44,1.22-.88c.84-.53,1.74-1,2.6-1.43a22.94,22.94,0,0,1,2.82-.86,61.65,61.65,0,0,1,11.47-1.49h0l8.92.27-.1,0,6.83,3.85,6.48,3.81,12.09,7.11,20,11.71,13.1,7.65,3.51,2,.9.51Z" style="fill:#455a64"></path><path d="M444.21,294.5a1.14,1.14,0,0,1-.32,0H443a7.3,7.3,0,0,0-1.48.08,12.13,12.13,0,0,0-2,.35l-1.16.3-1.24.47a8.49,8.49,0,0,0-1.32.59c-.44.24-.92.45-1.38.73a30.9,30.9,0,0,0-5.78,4.52A69.41,69.41,0,0,0,417.28,317a147.19,147.19,0,0,0-9.82,21.36l-.58,1.62v0h0l-16.56,38.28c-2.12,4.83-3.84,8.75-5.06,11.51l-1.4,3.12c-.16.32-.28.58-.38.8s-.14.27-.15.26a1.14,1.14,0,0,1,.09-.29c.08-.22.19-.49.32-.82.31-.77.74-1.83,1.29-3.16l4.87-11.6,16.38-38.36v0c.19-.51.39-1.07.59-1.63a143.22,143.22,0,0,1,9.91-21.44,68,68,0,0,1,11.54-15.44,30.08,30.08,0,0,1,5.91-4.5c.48-.29,1-.49,1.42-.72a9.15,9.15,0,0,1,1.35-.58l1.28-.45,1.19-.28a11,11,0,0,1,2-.29,6.94,6.94,0,0,1,1.5,0l.92.05A1.16,1.16,0,0,1,444.21,294.5Z" style="fill:#455a64"></path><path d="M556.17,211.83l.85,2.58s22.77,18.68,18.93,45-7,70.18-9.91,75-4.43,3.64-4.43,3.64l-62.46-23.95,16.16-63,10.58-24.4.22-2.49s12.83-4.65,19.62-7.37A73.31,73.31,0,0,0,556.17,211.83Z" style="fill:#fff"></path><path d="M477.48,305.09a49.34,49.34,0,0,0,40-12.64c7.78-7.18,16.69-15.33,23.18-21C552,261.48,563.73,252,560,237a21.72,21.72,0,0,0-1.67-3.88c-6.79-12.65-20.09-2.06-28.61,6.37-7.63,7.55-32.52,37.43-32.52,37.43l-45.62,17.55,25.87,10.62Z" style="fill:#ae7461"></path><path d="M556.17,226.67c-6.62-2.28-13.9-2-21.74,3.4s-22.62,25.11-22.62,25.11C512.6,256.71,538,278,538,278s20.32-20,24.46-29.89C566.46,238.6,562.78,229,556.17,226.67Z" style="fill:#fff"></path><path d="M556.17,226.67l.3.09.87.34a10.25,10.25,0,0,1,2.92,2.13,16,16,0,0,1,4,12.49,20.92,20.92,0,0,1-2.8,8.94,72.09,72.09,0,0,1-6.23,8.88,246.72,246.72,0,0,1-17,18.67l-.22.22-.24-.2c-3.45-2.91-7-5.93-10.7-9L519,262.28l-3.86-3.4-1.86-1.69c-.31-.28-.6-.57-.9-.87a7.24,7.24,0,0,1-.89-1l-.12-.16.15-.2c5-6.53,9.87-12.44,14.54-17.49a65.18,65.18,0,0,1,7-6.72,28.86,28.86,0,0,1,7.26-4.12,21.55,21.55,0,0,1,11.71-1.14,18.6,18.6,0,0,1,4.11,1.16.93.93,0,0,1-.28-.06l-.78-.21a27.72,27.72,0,0,0-3.08-.66,21.74,21.74,0,0,0-11.53,1.31,28.42,28.42,0,0,0-7.1,4.13,67.16,67.16,0,0,0-6.9,6.7c-4.62,5.06-9.46,11-14.42,17.5l0-.35a18.53,18.53,0,0,0,1.66,1.66l1.85,1.68,3.86,3.38,8.09,6.93,10.68,9h-.47a250.65,250.65,0,0,0,17-18.55,69.7,69.7,0,0,0,6.24-8.77,20.51,20.51,0,0,0,2.82-8.71,15.87,15.87,0,0,0-3.74-12.28A11.41,11.41,0,0,0,556.17,226.67Z" style="fill:#263238"></path><path d="M405.74,333.26s8-25.09,31.32-41.89c16.8-12.12,88.83-64.7,88.83-64.7L557,214.41s12.31,9,18.77,15.35S606.57,291,606.57,291L588,301.32l1.48,46.38s-57,4.28-80.54-5.58c-23.38,15.31-46.58,16.54-70.77,12Z" style="fill:#FFC100"></path><path d="M583.18,256.88a1.62,1.62,0,0,1,.12.48c.07.37.15.83.25,1.38.2,1.21.47,3,.77,5.12.61,4.33,1.35,10.32,1.95,17s1,12.67,1.15,17c.1,2.19.15,3.95.17,5.17,0,.56,0,1,0,1.41a1.72,1.72,0,0,1,0,.49,2.29,2.29,0,0,1-.07-.49l-.11-1.4c-.08-1.3-.19-3-.32-5.16-.28-4.35-.7-10.37-1.31-17s-1.28-12.63-1.79-17c-.25-2.11-.46-3.85-.61-5.14l-.15-1.4A1.66,1.66,0,0,1,583.18,256.88Z" style="fill:#263238"></path><path d="M519.1,279a3.32,3.32,0,0,1,0,.63c0,.46-.1,1.05-.17,1.79-.16,1.56-.42,3.8-.76,6.58-.67,5.55-1.68,13.21-2.95,21.65s-2.54,16.07-3.52,21.58c-.49,2.75-.9,5-1.21,6.51-.15.72-.26,1.31-.36,1.76a2.56,2.56,0,0,1-.16.61,2.41,2.41,0,0,1,.06-.62c.07-.47.15-1.06.26-1.79.26-1.6.61-3.82,1.05-6.53.89-5.53,2.1-13.15,3.37-21.59s2.33-16.09,3.1-21.63c.38-2.72.69-4.94.92-6.56l.27-1.78A2.13,2.13,0,0,1,519.1,279Z" style="fill:#263238"></path><path d="M523.36,273.61c.15,0-.36,3-.82,6.62s-.73,6.61-.88,6.61a45.24,45.24,0,0,1,1.7-13.23Z" style="fill:#263238"></path><path d="M468.14,299.31c.13.07-6.48,12.39-14.76,27.52s-15.11,27.34-15.23,27.27,6.48-12.39,14.77-27.52S468,299.24,468.14,299.31Z" style="fill:#263238"></path><path d="M665.3,204.63,631.09,198s5.87-23.5,8.15-29.21,8.56-16.8,20.66-12.07c0,0,8.68,2.29,8.65,11.45C668.54,170.47,665.3,204.63,665.3,204.63Z" style="fill:#FFC100"></path><path d="M665.3,204.63s0-.14,0-.38.05-.62.08-1.08c.09-1,.22-2.38.37-4.16.34-3.64.83-8.86,1.43-15.3.29-3.23.61-6.77.95-10.56.07-1,.17-1.92.17-2.88a14.93,14.93,0,0,0-.35-2.94,17.87,17.87,0,0,0-2.23-5.73,7.56,7.56,0,0,0-1-1.24,12.23,12.23,0,0,0-1.21-1,16.19,16.19,0,0,0-2.82-1.66,15.11,15.11,0,0,0-13.27.52,14.51,14.51,0,0,0-5.19,4.88,34,34,0,0,0-3.88,9.06c-.94,3.11-1.78,6.18-2.61,9.16-1.6,6-3.11,11.6-4.5,16.74l-.17-.27,24.72,4.93,7,1.41,1.84.39.65.15-.61-.1-1.81-.33L656,202.92l-24.91-4.73-.24-.05.06-.23c1.34-5.16,2.83-10.79,4.45-16.76.82-3,1.66-6.06,2.59-9.18a35,35,0,0,1,3.94-9.2,17.84,17.84,0,0,1,2.39-2.88,14.92,14.92,0,0,1,9.92-4,15.59,15.59,0,0,1,6.79,1.34,15.92,15.92,0,0,1,2.91,1.72,13.06,13.06,0,0,1,1.27,1.09,8.41,8.41,0,0,1,1,1.32,18.07,18.07,0,0,1,2.43,11.84c-.37,3.8-.7,7.34-1,10.57-.67,6.43-1.21,11.64-1.59,15.28-.2,1.78-.36,3.17-.47,4.15-.06.45-.1.81-.14,1.08A2.84,2.84,0,0,1,665.3,204.63Z" style="fill:#263238"></path></g><g id="freepik--characters-1--inject-14"><path d="M232.79,191.68A81.13,81.13,0,0,0,235.07,178a28.16,28.16,0,0,0-2.33-13.58c-.31-.64-2.79-4.86-3.48-4.72-.49.09,1.16,4.09,1,4.54a23.87,23.87,0,0,0-1.43,14.11,63.41,63.41,0,0,0,4,13.38" style="fill:#263238"></path><path d="M231.45,174.28c.49-12.12-6.14-22.5-18.27-22.66l-1.12,0a21.68,21.68,0,0,0-20.69,20.89c-.37,10.5-.65,22.11-.32,27.72.66,11.62,12.37,12.9,12.37,12.9l.13,4a14.1,14.1,0,0,0,15.66,13.57h0a14.09,14.09,0,0,0,12.52-14.1Z" style="fill:#ffbf9d"></path><path d="M203.41,213.18a27.13,27.13,0,0,0,15-5s-3.21,8.52-14.85,8Z" style="fill:#ff9a6c"></path><path d="M194.84,182.4a1.66,1.66,0,0,0,1.68,1.6,1.58,1.58,0,0,0,1.64-1.57,1.65,1.65,0,0,0-1.67-1.6A1.59,1.59,0,0,0,194.84,182.4Z" style="fill:#263238"></path><path d="M193.92,177.53c.22.21,1.43-.78,3.22-.85s3.14.76,3.32.53-.14-.48-.73-.87a4.57,4.57,0,0,0-2.67-.7,4.37,4.37,0,0,0-2.55,1C194,177,193.82,177.44,193.92,177.53Z" style="fill:#263238"></path><path d="M210,182.4a1.65,1.65,0,0,0,1.67,1.6,1.59,1.59,0,0,0,1.65-1.57,1.66,1.66,0,0,0-1.68-1.6A1.58,1.58,0,0,0,210,182.4Z" style="fill:#263238"></path><path d="M211.7,176.23c.19.23,1.51-.62,3.29-.51s3,1.1,3.24.89-.08-.49-.62-.94a4.54,4.54,0,0,0-2.58-1,4.33,4.33,0,0,0-2.64.67C211.82,175.74,211.61,176.12,211.7,176.23Z" style="fill:#263238"></path><path d="M205.81,191.22a11.06,11.06,0,0,0-2.92-.4c-.46,0-.9-.09-1-.4a2.34,2.34,0,0,1,.25-1.37c.38-1.12.77-2.3,1.19-3.53,1.65-5,2.82-9.16,2.62-9.22s-1.71,4-3.36,9c-.39,1.24-.77,2.42-1.13,3.55a2.66,2.66,0,0,0-.16,1.8,1.13,1.13,0,0,0,.78.63,3.32,3.32,0,0,0,.78.08A12,12,0,0,0,205.81,191.22Z" style="fill:#263238"></path><path d="M211.11,168.53c.19.48,2,.17,4.07.33s3.83.65,4.09.2c.12-.21-.2-.66-.9-1.1a6.88,6.88,0,0,0-3.07-.92,6.7,6.7,0,0,0-3.15.52C211.39,167.9,211,168.3,211.11,168.53Z" style="fill:#263238"></path><path d="M194.48,171.23c.33.39,1.54-.08,3-.17s2.75.15,3-.29c.11-.21-.1-.61-.67-1a4.12,4.12,0,0,0-2.48-.55,4.2,4.2,0,0,0-2.38.92C194.49,170.61,194.33,171,194.48,171.23Z" style="fill:#263238"></path><path d="M230.89,182.93c.19-.09,7.88-2.72,8,5.24s-7.91,6.42-7.93,6.19S230.89,182.93,230.89,182.93Z" style="fill:#ffbf9d"></path><path d="M233.34,191.31s.14.1.38.2a1.36,1.36,0,0,0,1,0c.83-.32,1.52-1.66,1.54-3.1a4.67,4.67,0,0,0-.41-2,1.61,1.61,0,0,0-1.06-1.05.71.71,0,0,0-.81.39c-.11.23-.05.38-.1.4s-.17-.13-.11-.46a.84.84,0,0,1,.31-.5,1.08,1.08,0,0,1,.76-.22,2,2,0,0,1,1.47,1.22,4.77,4.77,0,0,1,.51,2.21c0,1.6-.83,3.12-2,3.46a1.47,1.47,0,0,1-1.27-.19C233.36,191.51,233.32,191.33,233.34,191.31Z" style="fill:#ff9a6c"></path><path d="M194.67,161.8c-.26-2.33,3-7.31,6.16-8.91,4.84-2.42,12.3-4.08,16.89-3,5.52,1.34,10.17,3.89,13.1,8.76A32.32,32.32,0,0,1,235.06,175a9.84,9.84,0,0,1-1,5c-1.07,1.86-3.23,3.08-3,5.58a3.48,3.48,0,0,1-.76,2.53c-1.44,1.65-3.33.22-4.23-1.25-1.92-3.14-2.27-7-2.56-10.63a24,24,0,0,1,.22-7.81c.35-1.38.94-2.7,1.22-4.09a4.92,4.92,0,0,0-.74-4.07,5,5,0,0,0-.69-.65,8.52,8.52,0,0,0-8.53-1.29c-4.56,1.8-12.34,4.54-14.46,3-3-2.14-3.37-3-3.37-3Z" style="fill:#263238"></path><path d="M190.9,193.92a2.5,2.5,0,0,1,3.75.94,3.11,3.11,0,0,1,5.56.54,2.53,2.53,0,0,1,4.17-1,2,2,0,0,1,2.08-1,2,2,0,0,1,3.07-2,3.2,3.2,0,0,1,4.66-1.14,1.78,1.78,0,0,1,3.43-.13,2.86,2.86,0,0,1,3.25-1.1,1.92,1.92,0,0,1,2.25-1.94c-.35-1,1-1.51,1.74-2.26a12.56,12.56,0,0,1,.82-1.1c.33-.31.94-.42,1.2,0a1.64,1.64,0,0,1,3-1.3,5.32,5.32,0,0,1,.38,1.38c.33,1.5,1.31,3.24.29,4.4-.18.2-.42.37-.48.64-.11.45.35.84.42,1.3s-.39,1-.57,1.48a5,5,0,0,0,.2,2.36c.12.79-.26,1.84-1.06,1.81a2.8,2.8,0,0,1-.62,3.53,2.72,2.72,0,0,1-1.33,3.69,1.41,1.41,0,0,1,.24,1.84,4,4,0,0,1-1.54,1.29,1.16,1.16,0,0,1,.4,1.61,2.7,2.7,0,0,1-1.48,1.07,1.2,1.2,0,0,0-.67.41c-.25.44.17,1,.13,1.47-.06.76-1.11,1.06-1.38,1.78s.2,1.48-.26,2c-.3.32-.82.31-1.22.48-.73.32-1,1.18-1.42,1.85-.81,1.25-3,1-4.45,1.51-.72.24-1.56,1.44-2.29,1.63-1.47.39-2.08.54-3.57.83-.74.15-1.65.23-2.09-.38a2.59,2.59,0,0,1-4.15-.18,6.32,6.32,0,0,1-4.06-.46l-1.36-.48c-1.35-.47-2.87-1.1-3.35-2.45a2.89,2.89,0,0,1-2.37-3.79c-.58.22-1.2-.34-1.34-.95a5.79,5.79,0,0,1,.09-1.85c.27-2.52-1.23-5-1.08-7.48.11-1.77,1-3.58.4-5.24a3,3,0,0,1-.32-1c0-.36.3-.76.66-.68a1.62,1.62,0,0,1,1.47-2.27" style="fill:#263238"></path><path d="M210.55,192.82c-.29,0-.21,1.94-1.8,3.39s-3.67,1.33-3.68,1.6c0,.12.48.36,1.35.34a4.85,4.85,0,0,0,3.08-1.23,4.2,4.2,0,0,0,1.38-2.83C210.92,193.27,210.68,192.8,210.55,192.82Z" style="fill:#fff"></path><path d="M223.46,205a18.46,18.46,0,0,0,.44-4.15,17.81,17.81,0,0,0-.88-4.09,3.72,3.72,0,0,1,.57,1.11,10.19,10.19,0,0,1,.62,3,10,10,0,0,1-.3,3A3.66,3.66,0,0,1,223.46,205Z" style="fill:#455a64"></path><path d="M225.07,202.07a9.51,9.51,0,0,0,.38-.91,5.92,5.92,0,0,0,0-2.36c-.29-1.86-.91-3.28-.82-3.31a8.07,8.07,0,0,1,1.13,3.27,5.06,5.06,0,0,1-.12,2.47C225.43,201.84,225.09,202.1,225.07,202.07Z" style="fill:#455a64"></path><path d="M226.9,200.32a11.92,11.92,0,0,0,.58-3.52,12.15,12.15,0,0,0-.8-3.47,2.59,2.59,0,0,1,.55.92,7,7,0,0,1,.56,2.54,7.05,7.05,0,0,1-.39,2.57A2.71,2.71,0,0,1,226.9,200.32Z" style="fill:#455a64"></path><path d="M78.89,432.83l1,27.58S52.28,470.07,52,475.19l53.4.63.27-43Z" style="fill:#455a64"></path><path d="M105.36,475.81l0-3.42-51.84.43a4.08,4.08,0,0,0-1.85,2.65Z" style="fill:#263238"></path><path d="M79.36,460.58c0,.27,1.33.39,2.62,1.23s2,2,2.23,1.86S84.06,462,82.48,461,79.31,460.34,79.36,460.58Z" style="fill:#263238"></path><path d="M73.71,462.92c-.06.25,1.08.7,2,1.81s1.15,2.3,1.41,2.29.43-1.5-.7-2.87S73.71,462.66,73.71,462.92Z" style="fill:#263238"></path><path d="M70.49,469.68c.24.06.6-1.26-.07-2.7s-1.91-2-2-1.8.65,1,1.19,2.18S70.23,469.65,70.49,469.68Z" style="fill:#263238"></path><path d="M79.85,454.23c.11.24,1.31-.12,2.8,0s2.65.57,2.79.35-1-1.17-2.73-1.27S79.72,454,79.85,454.23Z" style="fill:#263238"></path><path d="M223.78,338.61c0-.57-.08-.89-.08-.89Z" style="fill:#263238"></path><polygon points="223.78 338.61 223.78 338.62 223.78 338.62 223.78 338.61" style="fill:#263238"></polygon><path d="M77.28,457.75l5.92-97.17s1.52-19.84,13-23.8c5.67-2,35-6.36,65.16-5.64l10.12-12.6c25.38.72,52.25,19.18,52.25,19.18l-1.23,13.44a26.06,26.06,0,0,1-25.55,23.67L119.34,376S116,389.89,115,395.9c-1.14,7.16-7.59,61.68-7.59,61.68Z" style="fill:#263238"></path><path d="M253.65,470.42c0-3.75-20.32-10.67-25.74-12.76s-10.83-6.56-12.1-13.27c-.77-4,7.64-61.8,7.64-61.8l-24.72.87H166.32s9.86,56.9,9.09,60.93c-1.28,6.71-6.69,11.19-12.11,13.27s-25.84,8.76-25.84,12.51l54.08.22v0Z" style="fill:#e0e0e0"></path><path d="M215.56,443.52a8,8,0,0,1-1.51.48c-1,.29-2.42.63-4.21,1a74.71,74.71,0,0,1-28.38.12c-1.79-.35-3.23-.68-4.21-1a10.75,10.75,0,0,1-1.52-.46,8.17,8.17,0,0,1,1.56.27c1,.21,2.44.49,4.24.79a83.67,83.67,0,0,0,28.24-.12c1.79-.31,3.23-.6,4.23-.83A10.28,10.28,0,0,1,215.56,443.52Z" style="fill:#263238"></path><g style="opacity:0.2"><path d="M178.1,448.06l-.62.34c-3.22,7.91-7.61,11.46-24.83,17.74,0,0,7.63-.49,10.27-.56l18.61.14c.32-.15,3.53-5.51,4.94-7.75q2.81-4.44,5.31-9.06A25.28,25.28,0,0,1,178.1,448.06Z"></path></g><g style="opacity:0.2"><path d="M180.23,440.41c-3.5-17.26-5.4-34.24-8.1-51.36h11.34l7.89,53.6S180.69,442.67,180.23,440.41Z"></path></g><path d="M234.57,381.29h5.32a5.55,5.55,0,0,0,5.5-4.88c1.05-8.68,3.14-32.86,3.16-33.1l-3.8-.33c0,.24-2.1,24.36-3.14,33a1.75,1.75,0,0,1-1.72,1.52h-5.32Z" style="fill:#e0e0e0"></path><path d="M234.57,381.29s0-.1,0-.27,0-.43,0-.74c0-.67,0-1.6.06-2.8l-.09.09,3,0,1.77,0a5.39,5.39,0,0,0,1,0,1.86,1.86,0,0,0,1.46-1.48c.06-.36.08-.71.12-1.08.08-.73.15-1.49.23-2.27.16-1.57.32-3.24.5-5,.68-7.05,1.5-15.54,2.4-24.74l-.25.2,2.82.25,1,.08-.21-.24c-1.2,12.85-2.28,24.44-3.06,32.85a5.45,5.45,0,0,1-2.91,4.43,8.41,8.41,0,0,1-4.11.63l-2.7.05-.72,0a1.27,1.27,0,0,0-.25,0h.22l.69,0,2.71.05c.6,0,1.26,0,2,0a5.52,5.52,0,0,0,2.28-.59,5.7,5.7,0,0,0,3.11-4.61c.82-8.42,2-20,3.2-32.85l0-.23-.22,0-1-.08-2.82-.25h-.22l0,.22c-.86,9.2-1.66,17.69-2.32,24.74-.16,1.76-.31,3.43-.46,5-.07.78-.14,1.54-.2,2.27,0,.37-.06.74-.11,1.07a1.52,1.52,0,0,1-.43.83,1.68,1.68,0,0,1-.79.44,5.57,5.57,0,0,1-.92,0h-1.77l-3,0h-.09v.09c0,1.22,0,2.17.05,2.85,0,.3,0,.54,0,.73A1,1,0,0,0,234.57,381.29Z" style="fill:#263238"></path><path d="M149.75,385.94h85a5.74,5.74,0,0,0,5.74-5.73h0a5.74,5.74,0,0,0-5.74-5.74h-85a5.74,5.74,0,0,0-5.74,5.74h0A5.74,5.74,0,0,0,149.75,385.94Z" style="fill:#455a64"></path><path d="M251.92,349.79l11.6-91a5.73,5.73,0,0,0-5-6.41h0a5.73,5.73,0,0,0-6.42,5l-11.6,91a5.73,5.73,0,0,0,5,6.41h0A5.73,5.73,0,0,0,251.92,349.79Z" style="fill:#455a64"></path><path d="M146.64,385.94c0,.13,20,.23,44.65.23s44.66-.1,44.66-.23-20-.23-44.66-.23S146.64,385.82,146.64,385.94Z" style="fill:#263238"></path><path d="M93.33,432.83l1,27.58s-27.57,9.66-27.89,14.78l53.4.63.27-43Z" style="fill:#455a64"></path><path d="M119.8,475.81l0-3.42L68,472.82a4.08,4.08,0,0,0-1.85,2.65Z" style="fill:#263238"></path><path d="M93.8,460.58c0,.27,1.33.39,2.62,1.23s2,2,2.23,1.86S98.5,462,96.91,461,93.75,460.34,93.8,460.58Z" style="fill:#263238"></path><path d="M88.14,462.92c-.06.25,1.08.7,2,1.81s1.15,2.3,1.41,2.29.43-1.5-.71-2.87S88.15,462.66,88.14,462.92Z" style="fill:#263238"></path><path d="M84.92,469.68c.24.06.61-1.26-.06-2.7s-1.91-2-2-1.8.65,1,1.19,2.18S84.66,469.65,84.92,469.68Z" style="fill:#263238"></path><path d="M94.28,454.23c.11.24,1.32-.12,2.81,0s2.65.57,2.79.35-1-1.17-2.74-1.27S94.15,454,94.28,454.23Z" style="fill:#263238"></path><path d="M238.22,338.61c-.05-.57-.08-.89-.08-.89Z" style="fill:#263238"></path><polygon points="238.22 338.61 238.22 338.62 238.22 338.62 238.22 338.61" style="fill:#263238"></polygon><path d="M91.71,457.75l5.93-97.17s1.52-19.84,13-23.8c5.67-2,35-6.36,65.15-5.64l10.12-12.6c25.39.72,52.26,19.18,52.26,19.18l-1.23,13.44a26.06,26.06,0,0,1-25.56,23.67L133.78,376s-3.35,13.85-4.31,19.86c-1.13,7.16-7.58,61.68-7.58,61.68Z" style="fill:#263238"></path><path d="M167.31,332.81l-.43,0-1.26,0-4.86.16c-4.23.15-10.36.36-18,.73-3.8.21-8,.42-12.46.76s-9.28.7-14.3,1.42a31.65,31.65,0,0,0-7.51,1.82,16.53,16.53,0,0,0-6.32,4.84,21.24,21.24,0,0,0-3.71,7.46,30,30,0,0,0-1.15,8.58v0h0c-.12,2.31-.26,4.78-.39,7.26-1.4,25.35-2.67,48.29-3.59,64.92-.49,8.29-.88,15-1.15,19.67-.15,2.3-.26,4.1-.34,5.35-.05.59-.08,1.05-.1,1.39s-.06.47-.06.47v-.48c0-.33,0-.8.05-1.39.06-1.25.14-3.05.24-5.35.24-4.67.57-11.39,1-19.68.88-16.63,2.1-39.58,3.44-64.93.13-2.48.27-4.95.39-7.26v0A30.29,30.29,0,0,1,98,350a21.64,21.64,0,0,1,3.81-7.63,17.08,17.08,0,0,1,6.52-5,32,32,0,0,1,7.63-1.83c5-.71,9.85-1.06,14.34-1.38s8.67-.51,12.47-.69c7.62-.33,13.75-.49,18-.57l4.87-.07h1.69Z" style="fill:#455a64"></path><path d="M232.78,212.45l.85,2.57s22.77,18.69,18.93,45-6.95,70.19-9.9,75-4.44,3.64-4.44,3.64l-60.08-14.39,13.78-72.54,10.59-24.4.21-2.49s12.83-4.65,19.63-7.37A72.9,72.9,0,0,0,232.78,212.45Z" style="fill:#FFC100"></path><path d="M82.44,336.62s8-25.09,31.32-41.9C130.56,282.61,202.6,230,202.6,230l31.12-12.26s12.31,9,18.77,15.35,30.78,61.24,30.78,61.24l-18.59,10.31,1.48,46.39s-57,4.28-80.54-5.58c-23.38,15.31-46.57,16.54-70.77,12Z" style="fill:#FFC100"></path><path d="M259.88,260.24a1.62,1.62,0,0,1,.12.48c.07.37.15.83.25,1.38.21,1.21.47,2.95.78,5.12.61,4.32,1.34,10.32,2,17s1,12.67,1.15,17c.09,2.18.14,4,.16,5.17,0,.56,0,1,0,1.41a2.08,2.08,0,0,1,0,.49,1.53,1.53,0,0,1-.08-.49l-.1-1.4c-.08-1.3-.2-3-.33-5.16-.28-4.36-.7-10.37-1.3-17s-1.28-12.62-1.8-17c-.25-2.11-.46-3.85-.61-5.14l-.15-1.4A2.27,2.27,0,0,1,259.88,260.24Z" style="fill:#263238"></path><path d="M195.8,282.34a2.51,2.51,0,0,1,0,.63c0,.47-.1,1.06-.17,1.8-.16,1.55-.42,3.8-.75,6.58-.68,5.55-1.69,13.21-3,21.65s-2.53,16.07-3.52,21.58c-.49,2.75-.9,5-1.2,6.51-.15.72-.27,1.31-.37,1.76a2.06,2.06,0,0,1-.16.61,4.67,4.67,0,0,1,.06-.62l.27-1.79c.25-1.61.61-3.82,1-6.54.89-5.52,2.1-13.14,3.37-21.58s2.34-16.09,3.1-21.63c.38-2.72.69-4.94.92-6.56l.27-1.78A3.13,3.13,0,0,1,195.8,282.34Z" style="fill:#263238"></path><path d="M200.06,277c.15,0-.36,3-.82,6.62s-.73,6.61-.88,6.61a30.86,30.86,0,0,1,.36-6.68A30.32,30.32,0,0,1,200.06,277Z" style="fill:#263238"></path><path d="M194.13,368.37a43.2,43.2,0,0,1,5.93,7.45,43.2,43.2,0,0,1-5.93-7.45Z" style="fill:#455a64"></path><path d="M69.15,208.31s-1.08,33.95,12.65,37.81S85.49,208,85.49,208Z" style="fill:#ffbf9d"></path><path d="M94.28,157.43l-.58-47.61c-.53-11.84,5.92-22,17.77-22.22l1.09.05A21.18,21.18,0,0,1,132.86,108c.4,10.27.72,21.61.42,27.1-.61,11.36-12,12.65-12,12.65s-.07,6.92-.07,10.25L112,170.67v.68Z" style="fill:#ffbf9d"></path><path d="M121.24,147.73a27.46,27.46,0,0,1-14.62-5s3.21,8.69,14.59,8.13Z" style="fill:#ff9a6c"></path><path d="M129.24,117.78a1.62,1.62,0,0,1-1.63,1.58,1.56,1.56,0,0,1-1.61-1.53,1.63,1.63,0,0,1,1.63-1.58A1.55,1.55,0,0,1,129.24,117.78Z" style="fill:#263238"></path><path d="M130.24,112.9c-.21.2-1.4-.76-3.15-.82s-3.06.75-3.24.53.13-.48.71-.86a4.42,4.42,0,0,1,2.6-.69,4.3,4.3,0,0,1,2.5.93C130.18,112.42,130.34,112.81,130.24,112.9Z" style="fill:#263238"></path><path d="M113.65,117.78a1.63,1.63,0,0,1-1.63,1.58,1.56,1.56,0,0,1-1.62-1.53,1.64,1.64,0,0,1,1.64-1.58A1.56,1.56,0,0,1,113.65,117.78Z" style="fill:#263238"></path><path d="M113.11,112.6c-.21.2-1.41-.76-3.15-.83s-3.06.76-3.24.53.13-.47.7-.85a4.48,4.48,0,0,1,2.61-.69,4.26,4.26,0,0,1,2.49.92C113,112.12,113.21,112.51,113.11,112.6Z" style="fill:#263238"></path><path d="M118.82,126.27a11.49,11.49,0,0,1,2.85-.39c.45,0,.88-.1,1-.4a2.19,2.19,0,0,0-.24-1.33c-.37-1.1-.77-2.25-1.18-3.45-1.63-4.91-2.79-8.94-2.59-9s1.68,3.87,3.31,8.78c.39,1.21.77,2.36,1.12,3.46a2.55,2.55,0,0,1,.16,1.76,1.09,1.09,0,0,1-.76.62,3.12,3.12,0,0,1-.76.08A11.24,11.24,0,0,1,118.82,126.27Z" style="fill:#263238"></path><path d="M113.9,107.16c-.26.44-1.93-.1-4-.23s-3.8.12-4-.35c-.08-.22.29-.61,1-.94a6.94,6.94,0,0,1,6.07.44C113.71,106.52,114,107,113.9,107.16Z" style="fill:#263238"></path><path d="M130.53,107.77c-.37.39-1.78-.06-3.49-.13s-3.17.19-3.49-.24c-.14-.2.1-.59.74-1a5.83,5.83,0,0,1,5.63.29C130.51,107.17,130.7,107.58,130.53,107.77Z" style="fill:#263238"></path><path d="M94.28,118.27c-.19-.09-7.71-2.63-7.78,5.15s7.75,6.25,7.76,6S94.28,118.27,94.28,118.27Z" style="fill:#ffbf9d"></path><path d="M91.91,126.47s-.13.1-.36.2a1.35,1.35,0,0,1-1,0c-.81-.31-1.49-1.62-1.52-3a4.49,4.49,0,0,1,.4-1.94,1.56,1.56,0,0,1,1-1,.68.68,0,0,1,.79.38c.11.22,0,.37.1.39s.16-.13.1-.45a.84.84,0,0,0-.3-.49,1,1,0,0,0-.74-.21A1.91,1.91,0,0,0,89,121.5a4.51,4.51,0,0,0-.49,2.17c0,1.57.82,3,1.94,3.38a1.5,1.5,0,0,0,1.25-.2C91.9,126.66,91.94,126.49,91.91,126.47Z" style="fill:#ff9a6c"></path><path d="M113.33,127.35c.27,0,.28,1.77,1.82,3s3.43,1.05,3.45,1.3-.43.35-1.23.37a4.39,4.39,0,0,1-2.88-1,3.9,3.9,0,0,1-1.41-2.55C113,127.79,113.21,127.34,113.33,127.35Z" style="fill:#263238"></path><path d="M148.56,97.75a1.89,1.89,0,0,0-.85-1.09,5.78,5.78,0,0,0-2.91-.5,16.45,16.45,0,0,1-7.09-1.87,8,8,0,0,0,2.11-1.45A4.89,4.89,0,0,0,141.28,88a1.09,1.09,0,0,0-.61-.75c-.5-.17-.95.33-1.3.72a4.22,4.22,0,0,1-4,1.63,7,7,0,0,1-2.95-.91l-.09-.11c-.4-.42-.79-.83-1.18-1.22h0c-2.89-2.93-5.38-5-8-6.05-3.78-1.57-10.13-2.26-14.1-1.27s-7.56,4.17-8.16,8.22c-2.2-1.9-5.53-1.92-8.25-.87l-.07,0c-3,1-4.77,4.2-5.69,7.26,0,.17-.1.34-.14.51a12,12,0,0,1-4.1,3.91c-.29.17-.63.37-.67.71s.24.61.51.8a6,6,0,0,0,2.42,1,13.12,13.12,0,0,1-1,2.1c-.34.57-.76,1.26-.47,1.86a1.27,1.27,0,0,0,1.33.59,3.76,3.76,0,0,0,1.41-.61l-1,2.4a7.27,7.27,0,0,0,3.28-.18c.61,2.88,1,8.2,1.74,10.15,2.07.06,2.57-.15,3.61.2,1.34.47.8,2.84,2.56,2.19.9-.34,2.31-3.7,2.61-4.61a44.33,44.33,0,0,0,2.14-18.78,14.35,14.35,0,0,1,4.45-3.13l-.14.12c3.19-1.07,6.8-2.11,9.8-.59,2.33,1.19,3.68,3.63,5.41,5.59a16.23,16.23,0,0,0,11.94,6c.41,3.44.48,9.06.61,12.27l2.81-6.39v0c.23-.37.41-.75.6-1.13l.06-.11v0a19.28,19.28,0,0,1,.92-1.81l0,0a2,2,0,0,0,3-2.65,4.41,4.41,0,0,0-1-1,3.17,3.17,0,0,0,3,.82,2.48,2.48,0,0,0,1.78-2.44,2.1,2.1,0,0,0-1.24-1.71,7.12,7.12,0,0,0,4.07-.85C148,99.5,148.82,98.76,148.56,97.75Z" style="fill:#263238"></path><path d="M104.52,89.62a8.94,8.94,0,0,0-1.15,1,8.12,8.12,0,0,0-1.8,3.76,14.94,14.94,0,0,0-.32,2.89c0,1,.06,2.17.12,3.35a28.9,28.9,0,0,1,0,3.74,14.68,14.68,0,0,1-.28,2,4.12,4.12,0,0,1-.83,1.91,1.72,1.72,0,0,1-1.61.52,2.58,2.58,0,0,1-1.44-.84A5.9,5.9,0,0,1,96.2,105l.24,0A9.65,9.65,0,0,1,95,107.44a3.47,3.47,0,0,1-2.23,1.18,2.21,2.21,0,0,1-1.17-.22,1.85,1.85,0,0,1-.79-.8,1.92,1.92,0,0,1-.23-1,1.46,1.46,0,0,1,.37-.88l.12.11a7.39,7.39,0,0,1-2.46,1.81,7.3,7.3,0,0,1-.76.28l-.28.07a1.87,1.87,0,0,1,.26-.11c.17-.07.42-.17.74-.32A7.5,7.5,0,0,0,91,105.71l.12.11a1.45,1.45,0,0,0-.09,1.69,1.62,1.62,0,0,0,.71.71,2,2,0,0,0,1.06.18,3.16,3.16,0,0,0,2.07-1.12A9.39,9.39,0,0,0,96.21,105l.17-.36.07.39a5.68,5.68,0,0,0,1,2.78,2.39,2.39,0,0,0,1.29.75,1.46,1.46,0,0,0,1.37-.45,3.92,3.92,0,0,0,.76-1.77,14.48,14.48,0,0,0,.28-1.93,32.42,32.42,0,0,0,0-3.7c-.06-1.19-.13-2.31-.1-3.38a14.39,14.39,0,0,1,.36-2.92,8.09,8.09,0,0,1,1.9-3.79A4.52,4.52,0,0,1,104.52,89.62Z" style="fill:#455a64"></path><path d="M139.61,101.09l-.09.08c-.08.06-.18.12-.29.21a5.6,5.6,0,0,1-.49.3,7.14,7.14,0,0,1-.69.36,10.14,10.14,0,0,1-4.89.82,13,13,0,0,1-6.84-2.62,22.35,22.35,0,0,1-5.82-6.87c-.81-1.39-1.47-2.81-2.2-4.12a15.19,15.19,0,0,0-2.51-3.49,7.76,7.76,0,0,0-3.25-2,5.48,5.48,0,0,0-1.73-.22,6.22,6.22,0,0,0-1.59.28,6.7,6.7,0,0,0-2.39,1.41,6.27,6.27,0,0,0-1.3,1.65,7.89,7.89,0,0,0-.61,1.7,1.09,1.09,0,0,1,0-.12c0-.1,0-.21.06-.35a6,6,0,0,1,.45-1.28,6.49,6.49,0,0,1,1.29-1.71,6.58,6.58,0,0,1,2.43-1.47,6.2,6.2,0,0,1,1.64-.32,5.62,5.62,0,0,1,1.8.22A8,8,0,0,1,116,85.58a15.59,15.59,0,0,1,2.56,3.54c.73,1.33,1.39,2.74,2.2,4.12a22.38,22.38,0,0,0,5.74,6.8,12.82,12.82,0,0,0,6.71,2.63,10.16,10.16,0,0,0,4.82-.73A13.82,13.82,0,0,0,139.61,101.09Z" style="fill:#455a64"></path><path d="M140.7,96.1s-.14.12-.41.28a8.66,8.66,0,0,1-1.22.6,10.9,10.9,0,0,1-1.92.61,13.91,13.91,0,0,1-2.45.3,13.54,13.54,0,0,1-2.46-.2,12.08,12.08,0,0,1-2-.52,9.81,9.81,0,0,1-1.23-.55c-.29-.16-.44-.25-.43-.27s.65.29,1.73.64a13.6,13.6,0,0,0,1.92.46,15.32,15.32,0,0,0,2.42.17,14.54,14.54,0,0,0,2.4-.27,14.09,14.09,0,0,0,1.91-.54C140.07,96.42,140.68,96.06,140.7,96.1Z" style="fill:#455a64"></path><path d="M111.51,439.67,110.38,464s25.86,9.26,26.12,13.79l-50.14-.37.1-38Z" style="fill:#455a64"></path><path d="M94.89,461.87a2,2,0,0,0-1.44,2.2,2,2,0,0,0,2.3,1.36,2,2,0,0,0,1.5-2.33,2.08,2.08,0,0,0-2.55-1.17" style="fill:#e0e0e0"></path><g style="opacity:0.6000000000000001"><path d="M86.36,477.46l.17-3.83,48,1.78s2.22.94,2,2.42Z" style="fill:#fff"></path></g><path d="M111.19,463.8c0,.23-1.23.33-2.44,1.06s-1.87,1.71-2.09,1.61.15-1.42,1.63-2.29S111.25,463.59,111.19,463.8Z" style="fill:#263238"></path><path d="M116.43,465.9c.06.22-1,.6-1.85,1.58s-1.08,2-1.33,2-.39-1.32.68-2.51S116.43,465.67,116.43,465.9Z" style="fill:#263238"></path><path d="M119.37,471.86c-.22,0-.55-1.11.09-2.37s1.79-1.76,1.89-1.57-.61.87-1.12,1.91S119.62,471.84,119.37,471.86Z" style="fill:#263238"></path><path d="M110.8,458.22c-.11.21-1.23-.11-2.61,0s-2.47.49-2.6.29.92-1,2.55-1.09S110.92,458,110.8,458.22Z" style="fill:#263238"></path><path d="M111.44,458a38.89,38.89,0,0,1,.07,5.87l-.2-.29c2.93,1.05,6.82,2.46,11,4.3a59.92,59.92,0,0,1,11.11,6,11.67,11.67,0,0,1,2.75,2.64c.52.76.45,1.34.37,1.32a3.32,3.32,0,0,0-.64-1.14,13.54,13.54,0,0,0-2.84-2.37,74.16,74.16,0,0,0-11.11-5.77c-4.11-1.83-8-3.31-10.83-4.47l-.22-.08,0-.21A35.53,35.53,0,0,1,111.44,458Z" style="fill:#263238"></path><path d="M79.08,269.76v22.08l9.23,70.52s-2.93,33.07-4.72,51.74c-1.56,16.21,1,44.45,1,44.45H112l9.79-94.16,6.08-58.72,11-34.79Z" style="fill:#263238"></path><path d="M127.6,435.44l-7.17,23.44s22.83,14.74,21.95,19.2L93.74,466.59l9.58-36.94Z" style="fill:#455a64"></path><path d="M105.91,453.34a2,2,0,0,0-1.94,1.81,1.91,1.91,0,0,0,1.89,1.83,2.1,2.1,0,0,0,2-1.93,2,2,0,0,0-2.19-1.7" style="fill:#e0e0e0"></path><g style="opacity:0.6000000000000001"><path d="M93.74,466.59l1.12-3.69,46.22,12.39s1.93,1.4,1.3,2.79Z" style="fill:#fff"></path></g><path d="M121.28,458.83c-.07.22-1.28,0-2.64.49s-2.23,1.24-2.43,1.1.5-1.35,2.16-1.87S121.39,458.64,121.28,458.83Z" style="fill:#263238"></path><path d="M125.85,462c0,.23-1.13.36-2.19,1.12s-1.55,1.71-1.79,1.64-.05-1.37,1.29-2.29S125.91,461.81,125.85,462Z" style="fill:#263238"></path><path d="M127.22,468.47c-.22,0-.26-1.2.68-2.28s2.17-1.31,2.22-1.1-.81.7-1.56,1.6S127.47,468.51,127.22,468.47Z" style="fill:#263238"></path><path d="M122.29,453.32c-.16.18-1.17-.39-2.53-.62s-2.52-.08-2.59-.3,1.14-.78,2.75-.49S122.45,453.17,122.29,453.32Z" style="fill:#263238"></path><polygon points="149.41 271.27 150.67 283.28 149.15 370.49 127.49 440.55 122.24 457.54 94.28 452.57 115.83 271.29 149.41 271.27" style="fill:#263238"></polygon><path d="M148.56,372.32a3.24,3.24,0,0,1-.1.41c-.08.29-.2.69-.35,1.21-.33,1.08-.8,2.66-1.41,4.7-1.25,4.1-3.07,10.08-5.37,17.61-4.63,15.08-11.18,36.39-18.85,61.35l-.07.21-.21,0-28-5-.26,0,0-.24c1.43-7.11,2.92-14.54,4.44-22.12C103,408,107.24,386.82,111,368.33v.08l-10.44-61.86v0l-4.67-8-1.19-2.07-.39-.72s.16.23.44.69l1.24,2,4.76,8h0v0l10.69,61.82v.07c-3.7,18.5-7.94,39.66-12.44,62.1-1.52,7.57-3,15-4.44,22.11l-.21-.29,28,5-.29.17,19-61.31,5.5-17.58q1-3,1.49-4.67c.17-.52.3-.91.39-1.2S148.56,372.32,148.56,372.32Z" style="fill:#455a64"></path><path d="M87.61,160.15s13.46.19,13.65,16.52-3.42,38.19-3.42,38.19L63.5,209s4.26-30.41,7.9-39.16S82.05,158.66,87.61,160.15Z" style="fill:#263238"></path><path d="M94,148.39l-.43,2.66s-18.35,11.82-19.39,14.87c-1.61,4.72,1.9,44.66,3.45,56s1.86,36.27,1.86,36.27c-1.13,2.93,0,4.81-.41,8.91a34.9,34.9,0,0,0,.41,8.55c19.69,6.26,43.75,1.45,69.77-4.33l-.25-7.18L140.51,186s2.48-20.29-7.69-26.16c-1.11-.65-10-5.55-10-5.55Z" style="fill:#263238"></path><g style="opacity:0.30000000000000004"><path d="M123.51,182.23a59.28,59.28,0,0,0,6,24.09A71.72,71.72,0,0,0,145,227.19l-2.75-23.36Z"></path></g><path d="M73.82,175a1.8,1.8,0,0,1,.08.47c0,.37.08.82.13,1.36.09,1.26.22,3,.37,5l1.08,16.55c.43,6.46.89,12.31,1.28,16.53.2,2.06.36,3.75.48,5,.05.54.09,1,.12,1.36a1.76,1.76,0,0,1,0,.48,1.46,1.46,0,0,1-.11-.47c-.06-.36-.13-.81-.22-1.35-.17-1.18-.4-2.88-.64-5-.48-4.22-1-10.07-1.43-16.54s-.73-12.32-.93-16.56c-.09-2.07-.16-3.76-.21-5,0-.54,0-1,0-1.36A1.35,1.35,0,0,1,73.82,175Z" style="fill:#455a64"></path><path d="M135.39,269.76a2.32,2.32,0,0,1-.52.16l-1.5.35c-.65.16-1.46.32-2.4.49s-2,.39-3.19.56c-2.36.4-5.21.72-8.37,1s-6.65.45-10.31.49-7.16-.1-10.33-.3-6-.53-8.39-.91c-1.19-.15-2.26-.35-3.19-.52s-1.75-.32-2.4-.48l-1.5-.35a2.09,2.09,0,0,1-.52-.16,1.84,1.84,0,0,1,.54.06l1.52.26c.66.13,1.46.26,2.41.39s2,.32,3.19.46c2.37.33,5.21.57,8.37.79s6.64.29,10.29.26,7.13-.22,10.28-.45,6-.56,8.36-.91c1.19-.15,2.25-.32,3.19-.48s1.75-.28,2.41-.41l1.52-.26A2.38,2.38,0,0,1,135.39,269.76Z" style="fill:#263238"></path><path d="M152.16,195.46s10.09-3.64,13.05-4.29,4.24,1.14,2.69,3.12a9.66,9.66,0,0,1-3.73,2.81s1-.6,1.69,1.7-3,4.38-3,4.38,1.89-.67.28,2.71c0,0,1.63.76-.71,3.1s-14.53,5.82-14.53,5.82l-5.15,5.85-7.49-9,7.51-9.24,4.54-8.31Z" style="fill:#ffbf9d"></path><path d="M163.45,174.26l3.91,2.25-4.3-1.23,0,.08,4.18,1.57-.15.38-4.17-1.56-.15.38,4.18,1.56-.14.39-4.18-1.57-.15.38,4.18,1.57-.14.38-4.18-1.56-.15.38,4.18,1.57-.14.38L162,178l-.15.38,4.19,1.57-.15.39-4.18-1.57-.15.38,4.19,1.57-.14.38-4.19-1.57-.15.39,4.19,1.57-.14.38-4.2-1.57-.14.38,4.19,1.57-.14.39-4.2-1.58-.14.39,4.2,1.57-.15.38-4.2-1.57-.14.38,4.2,1.58-.14.38-4.21-1.57-.14.38,4.2,1.57-.14.39L160,183.4l-.14.38,4.2,1.58-.14.38-4.21-1.57-.14.38,4.21,1.58-.15.38-4.21-1.58-.14.39,4.21,1.57-.14.39-4.22-1.58-.14.38,4.21,1.58L163,188l-4.22-1.58-.14.39,4.21,1.58-.14.38-4.22-1.58-.14.38,4.22,1.58-.15.39L158.24,188l-.14.39,4.22,1.58-.14.38L158,188.76l-.15.38,4.23,1.59-.14.38-4.23-1.58-.15.38,4.23,1.58-.14.39-4.23-1.59-.15.38,4.24,1.59-.15.38-4.23-1.58-.15.38,4.24,1.59-.14.38-4.24-1.59-.15.39,4.24,1.58-.14.39-4.24-1.59-.15.38,4.24,1.59-.14.39-4.24-1.6-.15.39,4.25,1.59-.15.38-4.24-1.59-.15.38,4.25,1.59-.14.39-4.25-1.6-.15.39,4.25,1.59-.14.38-4.25-1.59-.15.38,4.25,1.6-.14.38-4.25-1.59-.15.38,4.26,1.6-.15.38-4.25-1.6-.09.22,4.26,1.6s-5,.44-5.5,1.72-8.29,21.57-9.31,21.19h0s-.6-.22,4.29-13.26l12.46-33.22A1.72,1.72,0,0,1,163.45,174.26Z" style="fill:#263238"></path><path d="M149.89,201.87c2.42-1.38,2.27-6,2.27-6a13.09,13.09,0,0,0,3.1-3.33c1.94-2.88.08-3.33.08-3.33s-6.24,1.75-7.92,4.18-2.3,7.28-2.3,7.28S146.46,203.84,149.89,201.87Z" style="fill:#ffbf9d"></path><path d="M161.79,206c-.76.31-5.55,2-6,4.09s1.72,1.43,3.33,1a16.69,16.69,0,0,0,4-2s1.68-1.63.36-2.75A3.12,3.12,0,0,0,161.79,206Z" style="fill:#ffbf9d"></path><path d="M162.49,198.13c-.86.34-6.11,1.66-6.62,4.08s1.94,1.6,3.76,1.16,4.93-1.32,4.93-1.32,2.43-1.82,1.07-3.21A3.06,3.06,0,0,0,162.49,198.13Z" style="fill:#ffbf9d"></path><path d="M164.47,191.65c-.86.34-6.11,1.66-6.62,4.08s1.93,1.6,3.76,1.16,4.93-1.33,4.93-1.33,2.43-1.81,1.06-3.2A3,3,0,0,0,164.47,191.65Z" style="fill:#ffbf9d"></path><path d="M161.07,202.51c-.86.34-5.58,1.38-6.09,3.8s1.92,1.56,3.75,1.17c4.75-1,4.91-1.25,4.91-1.25a2.31,2.31,0,0,0,1.09-3.29C163.81,201.23,161.07,202.51,161.07,202.51Z" style="fill:#ffbf9d"></path><path d="M146.51,197.76l8.35,21.93,31,2.71v12.1s-30.33,5.32-36.58,5.4c-7.29.08-10.87-1.23-14.07-7.91-3.07-6.39-13.61-34.72-13.61-34.72Z" style="fill:#ffbf9d"></path><path d="M140.37,166.22c-1.93-3.62-6.85-7.29-10.89-6.58a10.1,10.1,0,0,0-5.79,2.88c-6,6.42-8,15.3-8.55,22.3S119.77,208,119.77,208l32.12-3.85s-8.19-27.65-9-30.51A49.39,49.39,0,0,0,140.37,166.22Z" style="fill:#263238"></path><path d="M140.37,166.22a5.54,5.54,0,0,1,.35.66,18.77,18.77,0,0,1,.79,2c.63,1.78,1.31,4.45,2.36,7.78,2,6.71,4.86,16.21,8.24,27.46l.07.25-.26,0-30.35,3.67-1.76.21-.21,0-.07-.2c-1.4-4.54-2.6-9-3.51-13.36a55.83,55.83,0,0,1-1-6.48,22.72,22.72,0,0,1-.1-3.19c.06-1.05.18-2.07.3-3.08,1-8.06,4-15.08,8.32-19.55a9.21,9.21,0,0,1,3.72-2.39,9.61,9.61,0,0,1,3.93-.61,9.91,9.91,0,0,1,3.34,1,14.35,14.35,0,0,1,5.17,4.54,6.87,6.87,0,0,1,.7,1.2s-.24-.42-.78-1.15a14.42,14.42,0,0,0-2.77-2.84,13,13,0,0,0-2.43-1.54,9.35,9.35,0,0,0-3.25-1,9.15,9.15,0,0,0-3.8.63,8.85,8.85,0,0,0-3.56,2.33c-4.19,4.43-7.15,11.37-8.13,19.38-.11,1-.23,2-.28,3.05a21.69,21.69,0,0,0,.1,3.11,59.59,59.59,0,0,0,1,6.43c.92,4.34,2.12,8.8,3.52,13.31l-.28-.18,1.76-.21L151.86,204l-.19.28c-3.31-11.28-6.09-20.79-8.07-27.51-1-3.34-1.65-6-2.22-7.81-.29-.9-.54-1.57-.73-2S140.35,166.23,140.37,166.22Z" style="fill:#455a64"></path><path d="M193.4,222.67c2.53-.6,3.62-4.77,3.62-4.77a12,12,0,0,0,3.65-2.15c2.5-2.07,1-3,1-3s-6-.09-8.2,1.65-4,5.91-4,5.91S189.8,223.52,193.4,222.67Z" style="fill:#ffbf9d"></path><path d="M202,230.61c-.76.07-5.49.28-6.46,2.08s1.16,1.73,2.71,1.81a15.43,15.43,0,0,0,4.13-.74s1.94-1,1.05-2.37A2.88,2.88,0,0,0,202,230.61Z" style="fill:#ffbf9d"></path><path d="M202.41,239.81c.64.39,1.2-.64.56-1a3.44,3.44,0,0,1-1.45-3.44h.2c2.06.18,4.3-1.4,5.34-3.94a6.53,6.53,0,0,0,.11-5c-1.42-3.31.08-5.77.77-8.13l1-3.2c8.82-3.79,15.66-6.13,15.61-8,0,0-5.34.75-14.56,4.57,2.82-9.38,2.89-13.48,2.89-13.48-1.91.14-3.39,5.74-6.28,14.88L203,214.48c-2.28.93-4.14,2.44-7.58,1.36a6.49,6.49,0,0,0-4.93.6c-2.85,1.51-4.22,4.51-3.06,6.71s4.42,2.74,7.27,1.23a6.68,6.68,0,0,0,3.15-3.42s1.81-2.35,6.44-4l1.18-.44c-.14.47-.25.88-.33,1.2-1.17,4.78-3.34,6.8-3.34,6.8a6.7,6.7,0,0,0-3.08,3.48c-1.09,2.66-.52,5.47,1.24,6.72a3.77,3.77,0,0,0,.41.25A4.66,4.66,0,0,0,202.41,239.81Zm-5.72-21.56c.92,1.73-.16,4.1-2.41,5.29s-4.81.76-5.73-1,.17-4.1,2.41-5.29S195.77,216.52,196.69,218.25Zm2.94,10.11c1-2.35,3.21-3.66,5-2.92s2.49,3.25,1.53,5.61-3.21,3.66-5,2.91S198.66,230.72,199.63,228.36Z" style="fill:#e0e0e0"></path><path d="M206.34,214.2a1,1,0,0,1,1.45,1.26,1,1,0,1,1-1.45-1.26Z" style="fill:#263238"></path><path d="M204.68,223.76c-.87.08-5.91-.13-7,1.9s1.3,2,3.06,2,4.77.12,4.77.12,2.65-1,1.8-2.59A2.85,2.85,0,0,0,204.68,223.76Z" style="fill:#ffbf9d"></path><path d="M202.25,227.31c-.87.08-5.37-.24-6.47,1.79s1.31,1.91,3.06,2c4.52.35,4.72.19,4.72.19a2.16,2.16,0,0,0,1.85-2.66C205,226.89,202.25,227.31,202.25,227.31Z" style="fill:#ffbf9d"></path><path d="M196.13,218.63s10-.59,12.83-.38,3.5,2.14,1.58,3.5a8.94,8.94,0,0,1-4.09,1.53s1-.28,1.07,2-3.87,3.12-3.87,3.12,1.88-.1-.46,2.5c0,0,1.25,1.12-1.46,2.59s-14.56,1.36-14.56,1.36l-7.35.71,6-13.14,6.27-6.25Z" style="fill:#ffbf9d"></path><path d="M120.14,277.62s-.14,32.1,2.34,36.57,29.6,10.81,31.66,3.6-5.58-49.1-5.58-49.1Z" style="fill:#455a64"></path><polygon points="79.39 261.84 148.56 267.76 150.67 283.46 79.08 272.5 79.39 261.84" style="fill:#455a64"></polygon><path d="M142,269.56a14.92,14.92,0,0,1-2,4.57,13.15,13.15,0,0,0,1.65-4.69c-.24-.07-.51-.13-.81-.19a18.78,18.78,0,0,1-1.85,5.26,19.87,19.87,0,0,0,1.38-5.34c-.4-.06-.84-.1-1.34-.13a14.17,14.17,0,0,1-.75,5.47,25.73,25.73,0,0,0,.32-5.48h-.42l-.8,0c.14,2.13.36,4.48.36,4.48a33.51,33.51,0,0,1-.73-4.46c-.34,0-.65.06-.93.1a19.7,19.7,0,0,0,1.38,5.35,18.55,18.55,0,0,1-1.85-5.28,8.21,8.21,0,0,0-.81.19,13,13,0,0,0,1.65,4.71,15,15,0,0,1-2-4.59,3.66,3.66,0,0,0-1.13.56,11,11,0,0,0,3,6.63h3.86a10.88,10.88,0,0,0,3-6.63A3.24,3.24,0,0,0,142,269.56Z" style="fill:#263238"></path><path d="M136.07,283.33h4.2s1.56-2.82,1.42-4.56-1.31-2.26-3.5-2.26h0c-2.19,0-3.35.52-3.49,2.26S136.07,283.33,136.07,283.33Z" style="fill:#FFC100"></path><path d="M153.14,263.59l-3.11-.47,2.87,1.19,0,.06-2.94-1-.09.28,3,.95-.09.27-3-1-.08.27,2.94.95-.08.27-2.95-.95-.09.27,2.95,1-.09.27-3-.95-.08.27,2.95.95-.09.27-2.95-.95-.09.27,3,1-.09.27-3-1-.08.27,3,1-.08.27-3-1-.09.27,3,1-.09.27-3-1-.09.27,3,1-.09.27-3-1-.09.27,3,1-.08.27-3-1-.09.27,3,1-.09.27-3-1-.09.28,3,1-.09.27-3-1-.09.27,3,1-.08.27-3-1-.09.27,3,1-.09.27-3-1-.09.27,3,1-.09.27-3-1-.09.27,3,1-.08.27-3-1-.09.27,3,1-.09.27-3-1-.09.27,3,1-.09.27-3-1-.09.27,3,1-.09.27-3-1-.09.27,3,1-.08.27-3-1-.09.27,3,1-.09.27-3-1-.09.28,3,1-.09.27-3-1-.09.27,3,1-.08.27-3-1-.09.27,3,1-.09.27-3-1-.09.27,3,1-.09.27-3-1-.08.27,3,1-.08.27-3-1-.09.27,3,1-.09.27-3-1-.08.27,3,1-.09.27-3-1-.09.27,3,1-.08.28-3-1-.08.27,3,1,0,.15-3-1s2.54,2.41,2.24,3.31-4.82,15.31-4.1,15.54h0s.42.14,3.4-9.06S154,265.34,154,265.34A1.19,1.19,0,0,0,153.14,263.59Z" style="fill:#263238"></path><path d="M126.86,275a39.83,39.83,0,0,1-1.92-5,2.94,2.94,0,0,1,.44-1.89h0a3.37,3.37,0,0,0,.55-2.78,2.92,2.92,0,0,0-3.26-2.47h0a2.72,2.72,0,0,0-2.28-1.91c-.44,0-.46.64,0,.68a2,2,0,0,1,1.68,1.5,3.09,3.09,0,0,0-1.2,3.35,3.19,3.19,0,0,0,2.11,2.43h0c1.27.79,3.26,6.43,3.26,6.43Zm-5.52-8.65a2.1,2.1,0,1,1,2.56,1.94A2.29,2.29,0,0,1,121.34,266.32Z" style="fill:#e0e0e0"></path><path d="M131.61,269.19h0a3.23,3.23,0,0,0,2.28-2.27,2.67,2.67,0,1,0-5-1.53,3.31,3.31,0,0,0,.35,2.8h0a3,3,0,0,1,.31,1.93,40.54,40.54,0,0,1-2.28,4.87l.67.38S130.28,269.89,131.61,269.19Zm-2.22-3.64a2.1,2.1,0,1,1,1.26,3A2.28,2.28,0,0,1,129.39,265.55Z" style="fill:#e0e0e0"></path><path d="M126.32,293.06c1.51.06,1.82-17.95,1.82-17.95l-.51-.91-1.13,0-.69.87S124.82,293,126.32,293.06Z" style="fill:#e0e0e0"></path><path d="M126.42,276.23a.57.57,0,0,1,.58-.55.57.57,0,0,1,.54.59.56.56,0,0,1-.58.54A.55.55,0,0,1,126.42,276.23Z" style="fill:#fff"></path><path d="M121.5,279.35s-1,28,1.77,32.77,18.61,7,23.11,6.42,5.91-3,6.82-7.58-3.42-29.1-3.42-29.1C137.56,283.28,129.92,281.91,121.5,279.35Z" style="fill:#455a64"></path><path d="M150.38,281.46a5.34,5.34,0,0,1-1.1.32c-.72.19-1.77.39-3.07.59a47,47,0,0,1-20.41-1.51c-1.26-.39-2.27-.74-3-1a5.44,5.44,0,0,1-1-.48c0-.09,1.56.48,4.09,1.16A55.75,55.75,0,0,0,136,282.22a54.67,54.67,0,0,0,10.2-.22C148.76,281.7,150.36,281.37,150.38,281.46Z" style="fill:#263238"></path></g></svg>
